<svg width="24" height="24" viewBox="0 0 24 24" fill="none" xmlns="http://www.w3.org/2000/svg">
<ellipse class="color-change-stroke" cx="12" cy="7.5" rx="4" ry="4.5" stroke="url(#paint0_linear)" stroke-width="2"/>
<path fill-rule="evenodd" clip-rule="evenodd" d="M6.00003 19C5.16798 18.4453 5.16851 18.4445 5.16851 18.4445L5.16908 18.4437L5.17036 18.4417L5.17351 18.4371L5.18211 18.4245C5.18886 18.4147 5.19766 18.402 5.20851 18.3868C5.23021 18.3563 5.26015 18.3152 5.29835 18.2651C5.37468 18.1649 5.48438 18.028 5.62762 17.8669C5.91341 17.5454 6.33695 17.1223 6.90003 16.7C8.0292 15.8531 9.73453 15 12 15C14.2655 15 15.9709 15.8531 17.1 16.7C17.6631 17.1223 18.0867 17.5454 18.3724 17.8669C18.5157 18.028 18.6254 18.1649 18.7017 18.2651C18.7399 18.3152 18.7699 18.3563 18.7915 18.3868C18.8024 18.402 18.8112 18.4147 18.818 18.4245L18.8266 18.4371L18.8297 18.4417L18.8316 18.4445C18.8316 18.4445 18.8321 18.4453 18 19L18.8316 18.4445L19.1094 18.8613C19.2626 19.0911 19.2005 19.4015 18.9708 19.5547L18.1387 20.1094C17.9089 20.2626 17.5985 20.2005 17.4453 19.9707L17.1706 19.5586L17.1616 19.5458C17.1521 19.5324 17.1352 19.509 17.1109 19.4771C17.0622 19.4133 16.9844 19.3157 16.8776 19.1956C16.6634 18.9546 16.3369 18.6277 15.9 18.3C15.0292 17.6469 13.7345 17 12 17C10.2655 17 8.97086 17.6469 8.10003 18.3C7.66312 18.6277 7.33665 18.9546 7.12244 19.1956C7.01568 19.3157 6.93788 19.4133 6.88921 19.4771C6.86491 19.509 6.84798 19.5324 6.83842 19.5458L6.82984 19.5581L6.55473 19.9707C6.40156 20.2005 6.09112 20.2626 5.86136 20.1094L5.02931 19.5547C4.79954 19.4015 4.73746 19.0911 4.89063 18.8613L5.16851 18.4445L6.00003 19Z" fill="#3E445B"/>
<defs>
<linearGradient id="paint0_linear" x1="12.9346" y1="1.875" x2="7.48672" y2="7.08866" gradientUnits="userSpaceOnUse">
<stop stop-color="#FFCD9C"/>
<stop offset="1" stop-color="#F8A303"/>
</linearGradient>
</defs>
</svg>
