<svg width="40" height="40" viewBox="0 0 40 40" fill="none" xmlns="http://www.w3.org/2000/svg">
<circle cx="20" cy="20" r="20" fill="#3E445B"/>
<path d="M32.0019 20C32.0018 22.0665 31.4681 24.0979 30.4525 25.8975C29.4368 27.6972 27.9736 29.204 26.2046 30.2722C24.4356 31.3403 22.4208 31.9336 20.3552 31.9945C18.2897 32.0554 16.2434 31.5818 14.4146 30.6197L17.8011 27.2273C18.9301 27.5712 20.124 27.6457 21.287 27.4449C22.45 27.244 23.5498 26.7733 24.498 26.0706C25.4463 25.3679 26.2166 24.4527 26.7472 23.3984C27.2779 22.3442 27.554 21.1802 27.5535 20H32.0019Z" fill="url(#paint0_linear)"/>
<path d="M15.5625 26.1189L12.3943 29.2871C11.7811 28.7861 11.2198 28.2247 10.7188 27.6116L13.8988 24.4434C14.1314 24.7648 14.3899 25.0667 14.6716 25.346C14.9477 25.6268 15.2456 25.8853 15.5625 26.1189Z" fill="url(#paint1_linear)"/>
<path d="M19.9989 8V12.4485C18.8192 12.4489 17.6559 12.7257 16.6024 13.2567C15.549 13.7877 14.6345 14.5582 13.9325 15.5063C13.2304 16.4544 12.7603 17.5538 12.5597 18.7164C12.3591 19.879 12.4337 21.0723 12.7775 22.2009L9.37923 25.5933C8.4175 23.7641 7.94423 21.7175 8.00523 19.6518C8.06623 17.586 8.65943 15.571 9.72742 13.8017C10.7954 12.0324 12.302 10.5687 14.1015 9.55232C15.9009 8.53593 17.9323 8.00125 19.9989 8V8Z" fill="url(#paint2_linear)"/>
<path d="M27.5565 12.4482V20H23.1139C23.1156 20.6935 22.8827 21.3672 22.4531 21.9116C22.1604 22.2816 21.7872 22.5801 21.362 22.7845C20.9368 22.989 20.4706 23.094 19.9988 23.0915C19.593 23.0929 19.1913 23.0106 18.8188 22.8496C18.4431 22.6943 18.1016 22.4663 17.8141 22.1788C17.5266 21.8913 17.2986 21.5498 17.1433 21.1741C16.9841 20.801 16.9018 20.3997 16.9014 19.9941C16.9029 19.17 17.231 18.3801 17.8138 17.7973C18.3965 17.2146 19.1864 16.8865 20.0106 16.8849V12.4482H27.5565Z" fill="url(#paint3_linear)"/>
<defs>
<linearGradient id="paint0_linear" x1="19.8966" y1="28.2358" x2="27.662" y2="17" gradientUnits="userSpaceOnUse">
<stop stop-color="#FFA300"/>
<stop offset="1" stop-color="#FFD1AA"/>
</linearGradient>
<linearGradient id="paint1_linear" x1="12.2286" y1="27.7678" x2="15.5792" y2="24.46" gradientUnits="userSpaceOnUse">
<stop stop-color="#FFA300"/>
<stop offset="1" stop-color="#FFD1AA"/>
</linearGradient>
<linearGradient id="paint2_linear" x1="11.7401" y1="20.0748" x2="23.0172" y2="12.4821" gradientUnits="userSpaceOnUse">
<stop stop-color="#FFA300"/>
<stop offset="1" stop-color="#FFD1AA"/>
</linearGradient>
<linearGradient id="paint3_linear" x1="20.2226" y1="19.7531" x2="27.5851" y2="12.4767" gradientUnits="userSpaceOnUse">
<stop stop-color="#FFA300"/>
<stop offset="1" stop-color="#FFD1AA"/>
</linearGradient>
</defs>
</svg>
