<svg width="24" height="24" viewBox="0 0 24 24" fill="none" xmlns="http://www.w3.org/2000/svg">
<path fill-rule="evenodd" clip-rule="evenodd" d="M10.5857 12L5.6464 7.06066C5.45114 6.8654 5.45114 6.54881 5.6464 6.35355L6.35351 5.64645C6.54877 5.45118 6.86535 5.45118 7.06061 5.64645L12 10.5858L16.9393 5.64645C17.1346 5.45118 17.4511 5.45118 17.6464 5.64645L18.3535 6.35355C18.5488 6.54881 18.5488 6.8654 18.3535 7.06066L13.4142 12L18.3535 16.9393C18.5488 17.1346 18.5488 17.4512 18.3535 17.6464L17.6464 18.3536C17.4511 18.5488 17.1346 18.5488 16.9393 18.3536L12 13.4142L7.06061 18.3536C6.86535 18.5488 6.54877 18.5488 6.35351 18.3536L5.6464 17.6464C5.45114 17.4512 5.45114 17.1346 5.6464 16.9393L10.5857 12Z" fill="#3E445B"/>
</svg>
