<svg width="16" height="16" viewBox="0 0 16 16" fill="none" xmlns="http://www.w3.org/2000/svg">
<path d="M2 8.66667C2 7.40959 2 6.78105 2.39052 6.39052C2.78105 6 3.40959 6 4.66667 6H7.33333C8.59041 6 9.21895 6 9.60948 6.39052C10 6.78105 10 7.40959 10 8.66667V11.3333C10 12.5904 10 13.219 9.60948 13.6095C9.21895 14 8.59041 14 7.33333 14H4.66667C3.40959 14 2.78105 14 2.39052 13.6095C2 13.219 2 12.5904 2 11.3333V8.66667Z" stroke="#3E445B" stroke-width="2"/>
<path d="M6 4V4C6 3.37874 6 3.06812 6.10149 2.82309C6.23682 2.49638 6.49638 2.23682 6.82309 2.10149C7.06812 2 7.37874 2 8 2H11.3333C12.5904 2 13.219 2 13.6095 2.39052C14 2.78105 14 3.40959 14 4.66667V8C14 8.62126 14 8.93188 13.8985 9.17691C13.7632 9.50362 13.5036 9.76318 13.1769 9.89851C12.9319 10 12.6213 10 12 10V10" stroke="#3E445B" stroke-width="2"/>
</svg>
