<svg width="24" height="24" viewBox="0 0 24 24" fill="none" xmlns="http://www.w3.org/2000/svg">
<path fill-rule="evenodd" clip-rule="evenodd" d="M7.18 2H7.14212H7.14208C6.62382 1.99998 6.17671 1.99997 5.80824 2.02958C5.41944 2.06082 5.03249 2.12978 4.65907 2.31637C4.07793 2.60675 3.60675 3.07793 3.31637 3.65907C3.12978 4.03249 3.06082 4.41944 3.02958 4.80824C2.99997 5.17671 2.99998 5.62382 3 6.14208V6.14212V6.18V17.82V17.8579V17.8579C2.99998 18.3762 2.99997 18.8233 3.02958 19.1918C3.06082 19.5806 3.12978 19.9675 3.31637 20.3409C3.60675 20.9221 4.07793 21.3933 4.65907 21.6836C5.03249 21.8702 5.41944 21.9392 5.80824 21.9704C6.17672 22 6.62384 22 7.14213 22H7.14215H7.18H12V20H7.18C6.61317 20 6.24717 19.9993 5.96845 19.9769C5.70111 19.9554 5.6017 19.9189 5.55302 19.8945C5.35931 19.7978 5.20225 19.6407 5.10546 19.447C5.08114 19.3983 5.04464 19.2989 5.02315 19.0316C5.00075 18.7528 5 18.3868 5 17.82V6.18C5 5.61317 5.00075 5.24717 5.02315 4.96845C5.04464 4.70111 5.08114 4.6017 5.10546 4.55302C5.20225 4.35931 5.35931 4.20225 5.55302 4.10546C5.6017 4.08114 5.70111 4.04464 5.96845 4.02315C6.24717 4.00075 6.61317 4 7.18 4H12V2H7.18ZM15.3536 6.64645C15.5489 6.45119 15.8655 6.45119 16.0607 6.64645L21.4143 12L16.0607 17.3536C15.8655 17.5488 15.5489 17.5488 15.3536 17.3536L14.6465 16.6464C14.4513 16.4512 14.4513 16.1346 14.6465 15.9393L17.5859 12.9999H8V10.9999H17.5858L14.6465 8.06066C14.4513 7.8654 14.4513 7.54882 14.6465 7.35356L15.3536 6.64645Z" fill="#3E445B"/>
</svg>
