<svg width="24" height="24" viewBox="0 0 24 24" fill="none" xmlns="http://www.w3.org/2000/svg">
<path fill-rule="evenodd" clip-rule="evenodd" d="M14.9999 5.5C14.9999 3.96911 16.0344 3 16.9999 3C17.9654 3 18.9999 3.96911 18.9999 5.5C18.9999 7.03089 17.9654 8 16.9999 8C16.0344 8 14.9999 7.03089 14.9999 5.5ZM16.9999 1C14.6517 1 12.9999 3.16489 12.9999 5.5C12.9999 7.83511 14.6517 10 16.9999 10C19.3481 10 20.9999 7.83511 20.9999 5.5C20.9999 3.16489 19.3481 1 16.9999 1ZM4.99988 9.5C4.99988 7.96911 6.03438 7 6.99988 7C7.96538 7 8.99988 7.96911 8.99988 9.5C8.99988 11.0309 7.96538 12 6.99988 12C6.03438 12 4.99988 11.0309 4.99988 9.5ZM6.99988 5C4.65168 5 2.99988 7.16489 2.99988 9.5C2.99988 11.8351 4.65168 14 6.99988 14C9.34809 14 10.9999 11.8351 10.9999 9.5C10.9999 7.16489 9.34809 5 6.99988 5ZM12.8755 15.983C12.8758 15.9825 12.8761 15.9819 11.9999 15.5C11.1237 15.0181 11.124 15.0175 11.1243 15.017L11.1249 15.0158L11.1263 15.0133L11.1295 15.0075L11.1377 14.9933C11.1438 14.9826 11.1515 14.9696 11.1607 14.9543C11.1792 14.9237 11.204 14.8843 11.2354 14.8372C11.2983 14.7431 11.388 14.6182 11.5078 14.473C11.7472 14.1828 12.1081 13.8098 12.6148 13.4413C13.6396 12.696 15.2193 12 17.4999 12C19.7805 12 21.3602 12.696 22.3849 13.4413C22.8916 13.8098 23.2525 14.1828 23.492 14.473C23.6117 14.6182 23.7015 14.7431 23.7643 14.8372C23.7958 14.8843 23.8206 14.9237 23.839 14.9543L23.8497 14.972L23.8621 14.9933L23.8702 15.0075L23.8734 15.0133L23.8748 15.0158L23.8755 15.017C23.8758 15.0175 23.8761 15.0181 22.9999 15.5C22.1237 15.9819 22.124 15.9825 22.1242 15.983L22.1248 15.984L22.1258 15.9858L22.1275 15.9888L22.1295 15.9923L22.1297 15.9928C22.1296 15.9924 22.1289 15.9914 22.1278 15.9896C22.1242 15.9835 22.1154 15.9692 22.1012 15.948C22.0727 15.9053 22.0228 15.835 21.9492 15.7458C21.8019 15.5672 21.5613 15.3152 21.2086 15.0587C20.5146 14.554 19.3443 14 17.4999 14C15.6555 14 14.4852 14.554 13.7912 15.0587C13.4385 15.3152 13.1979 15.5672 13.0506 15.7458C12.977 15.835 12.9271 15.9053 12.8986 15.948C12.8844 15.9692 12.8756 15.9835 12.8719 15.9896L12.8703 15.9923L12.8722 15.9888L12.8739 15.9858L12.875 15.984L12.8755 15.983ZM0.999882 19.5C1.8761 19.9819 1.8758 19.9825 1.87552 19.983L1.87496 19.984L1.87394 19.9858L1.87225 19.9888L1.87025 19.9923L1.87193 19.9896C1.8756 19.9835 1.8844 19.9692 1.89861 19.948C1.92708 19.9053 1.97696 19.835 2.05055 19.7458C2.19786 19.5672 2.4385 19.3152 2.79118 19.0587C3.4852 18.554 4.6555 18 6.49988 18C8.34426 18 9.51457 18.554 10.2086 19.0587C10.5613 19.3152 10.8019 19.5672 10.9492 19.7458C11.0228 19.835 11.0727 19.9053 11.1012 19.948C11.1154 19.9692 11.1242 19.9835 11.1278 19.9896C11.1297 19.9926 11.1302 19.9936 11.1295 19.9923L11.1275 19.9888L11.1258 19.9858L11.1248 19.984L11.1242 19.983C11.124 19.9825 11.1237 19.9819 11.9999 19.5C12.8761 19.0181 12.8758 19.0175 12.8755 19.017L12.8748 19.0158L12.8734 19.0133L12.8702 19.0075L12.8621 18.9933C12.856 18.9826 12.8483 18.9696 12.839 18.9543C12.8206 18.9237 12.7958 18.8843 12.7643 18.8372C12.7015 18.7431 12.6117 18.6182 12.492 18.473C12.2525 18.1828 11.8916 17.8098 11.3849 17.4413C10.3602 16.696 8.7805 16 6.49988 16C4.21926 16 2.63957 16.696 1.61484 17.4413C1.10814 17.8098 0.74722 18.1828 0.507805 18.473C0.388041 18.6182 0.298271 18.7431 0.235427 18.8372C0.203985 18.8843 0.179212 18.9237 0.160731 18.9543C0.151488 18.9696 0.14381 18.9826 0.13765 18.9933L0.12954 19.0075L0.126326 19.0133L0.124927 19.0158L0.124279 19.017C0.12397 19.0175 0.123666 19.0181 0.999882 19.5Z" fill="#3E445B"/>
</svg>
