<svg width="120" height="24" viewBox="0 0 120 24" fill="none" xmlns="http://www.w3.org/2000/svg">
<g clip-path="url(#clip0)">
<path d="M0 0H120V24H0V0Z" fill="#343027" fill-opacity="0.01"/>
<path d="M40.692 21.2336C39.775 21.2522 38.8636 21.0879 38.013 20.7505C37.1624 20.4132 36.3902 19.9099 35.7431 19.2709C35.0959 18.632 34.5872 17.8707 34.2478 17.0331C33.9083 16.1955 33.7451 15.2989 33.768 14.3975C33.774 13.2024 34.0986 12.0298 34.7095 10.9965C35.3203 9.96317 36.196 9.10535 37.2493 8.50856C38.3026 7.91177 39.4967 7.59685 40.7124 7.59522C41.9281 7.59359 43.123 7.90529 44.178 8.49925C45.1984 9.06371 46.0317 9.90537 46.578 10.9234L43.668 12.5985C43.4051 12.0695 42.9872 11.6299 42.468 11.3363C41.9229 11.0215 41.3001 10.8603 40.668 10.8704C40.2013 10.8567 39.7367 10.9376 39.3031 11.1081C38.8696 11.2785 38.4764 11.5349 38.148 11.8613C37.816 12.197 37.5566 12.5953 37.3855 13.0322C37.2143 13.4691 37.1349 13.9355 37.152 14.4034C37.1362 14.8667 37.2163 15.3283 37.3875 15.7603C37.5587 16.1922 37.8175 16.5854 38.148 16.9161C38.4764 17.2424 38.8696 17.4988 39.3031 17.6693C39.7367 17.8397 40.2013 17.9207 40.668 17.907C41.2975 17.9148 41.9182 17.7603 42.468 17.4587C42.9894 17.1733 43.4085 16.7366 43.668 16.2083L46.608 17.8598C46.0303 18.8719 45.187 19.7131 44.166 20.2958C43.1164 20.9134 41.9152 21.2376 40.692 21.2336Z" fill="#F8A303"/>
<path d="M56.0339 7.59118C56.8874 7.58216 57.733 7.75336 58.5135 8.09323C59.294 8.43309 59.9911 8.93369 60.5579 9.5612C61.8052 10.8687 62.4797 12.6058 62.4359 14.3978C62.4801 16.1881 61.8054 17.9235 60.5579 19.2284C59.9929 19.8606 59.2969 20.3666 58.5167 20.7125C57.7364 21.0584 56.8898 21.2361 56.0339 21.2338C55.2245 21.276 54.4166 21.1272 53.6776 20.7998C52.9386 20.4725 52.29 19.9762 51.7859 19.3523V20.8741H48.4019V2.7959H51.7859V9.47272C52.2893 8.84807 52.9378 8.35122 53.677 8.02383C54.4161 7.69645 55.2243 7.54808 56.0339 7.59118ZM52.7999 17.0166C53.1371 17.3526 53.5416 17.6163 53.9877 17.7909C54.4338 17.9655 54.9119 18.0473 55.3919 18.0311C55.8743 18.0462 56.3548 17.964 56.8037 17.7895C57.2526 17.615 57.6604 17.352 58.0019 17.0166C58.3476 16.6729 58.6181 16.2632 58.7967 15.8128C58.9752 15.3624 59.058 14.8808 59.0399 14.3978C59.0571 13.9185 58.975 13.4408 58.7986 12.9936C58.6222 12.5465 58.3552 12.1392 58.0139 11.7966C57.6724 11.4613 57.2646 11.1982 56.8157 11.0238C56.3668 10.8493 55.8863 10.767 55.4039 10.7821C54.922 10.7643 54.4416 10.8453 53.9932 11.02C53.5449 11.1946 53.1385 11.4591 52.7999 11.7966C52.4562 12.1413 52.188 12.5514 52.0115 13.0018C51.8351 13.4522 51.7542 13.9332 51.7739 14.4155C51.7584 14.8945 51.8413 15.3718 52.0176 15.8187C52.1938 16.2656 52.4599 16.673 52.7999 17.0166Z" fill="#F8A303"/>
<path d="M67.6561 11.6138C67.6561 11.9559 67.8841 12.2036 68.3461 12.4513C68.8907 12.698 69.4571 12.8954 70.0381 13.0412C70.7139 13.209 71.379 13.4158 72.0301 13.6605C72.702 13.9135 73.2882 14.3467 73.7221 14.9109C74.1977 15.5441 74.4371 16.3188 74.4001 17.1051C74.4297 17.6976 74.3073 18.288 74.0441 18.8218C73.781 19.3557 73.3855 19.816 72.8941 20.1604C71.7939 20.9003 70.4824 21.2764 69.1501 21.2338C66.4581 21.2338 64.6221 20.2115 63.6421 18.1668L66.6001 16.5152C66.9841 17.6359 67.8421 18.1903 69.1741 18.1903C70.3741 18.1903 70.9741 17.8247 70.9741 17.0815C70.9741 16.7394 70.7461 16.4622 70.2781 16.2439C69.7349 15.9987 69.1707 15.8013 68.5921 15.6541C67.9156 15.4817 67.2503 15.2689 66.6001 15.0171C65.9385 14.7574 65.3559 14.3349 64.9081 13.7902C64.4264 13.195 64.1754 12.4508 64.2001 11.6905C64.1754 11.1141 64.2923 10.5404 64.5408 10.0178C64.7894 9.49522 65.1623 9.03918 65.6281 8.68826C66.6501 7.93488 67.9034 7.54777 69.1801 7.59118C70.1957 7.57892 71.1975 7.8226 72.0901 8.29897C72.9612 8.76887 73.6805 9.46986 74.1661 10.3221L71.2801 11.8733C71.1109 11.4678 70.8183 11.1237 70.4423 10.8883C70.0663 10.6528 69.6254 10.5374 69.1801 10.558C68.7974 10.5435 68.4191 10.6421 68.0941 10.8411C67.9585 10.9208 67.8467 11.0342 67.7698 11.1698C67.6929 11.3054 67.6537 11.4585 67.6561 11.6138Z" fill="#F8A303"/>
<path d="M87.5998 19.2282C86.6309 20.1884 85.3931 20.8434 84.0441 21.1097C82.6952 21.376 81.2961 21.2415 80.0252 20.7234C78.7543 20.2053 77.669 19.3271 76.9076 18.2005C76.1462 17.0739 75.7432 15.75 75.7498 14.3975C75.7498 12.5891 76.4806 10.8549 77.7813 9.57616C79.0821 8.29746 80.8463 7.5791 82.6858 7.5791C84.5254 7.5791 86.2896 8.29746 87.5903 9.57616C88.8911 10.8549 89.6218 12.5891 89.6218 14.3975C89.6412 15.2961 89.4716 16.189 89.1237 17.0203C88.7757 17.8515 88.257 18.6031 87.5998 19.2282ZM80.1418 16.9514C80.4715 17.2802 80.8663 17.5389 81.3019 17.7114C81.7374 17.8839 82.2044 17.9665 82.6738 17.9541C83.1449 17.9657 83.6135 17.8827 84.0509 17.7103C84.4883 17.5379 84.8853 17.2797 85.2178 16.9514C85.5553 16.6161 85.8198 16.2167 85.9952 15.7776C86.1705 15.3386 86.2531 14.869 86.2378 14.3975C86.2531 13.926 86.1705 13.4564 85.9952 13.0173C85.8198 12.5782 85.5553 12.1789 85.2178 11.8435C84.8853 11.5153 84.4883 11.257 84.0509 11.0846C83.6135 10.9122 83.1449 10.8293 82.6738 10.8408C82.2044 10.8285 81.7374 10.9111 81.3019 11.0836C80.8663 11.2561 80.4715 11.5147 80.1418 11.8435C79.8074 12.1805 79.5456 12.5804 79.3724 13.0193C79.1992 13.4582 79.118 13.927 79.1338 14.3975C79.1157 14.8668 79.194 15.3348 79.3641 15.7736C79.5342 16.2125 79.7926 16.613 80.1238 16.9514H80.1418Z" fill="#3E445B"/>
<path d="M99.2821 7.59104C99.9418 7.57125 100.598 7.68693 101.21 7.93067C101.822 8.17441 102.375 8.54086 102.834 9.00662C103.321 9.53648 103.695 10.156 103.936 10.8294C104.177 11.5027 104.28 12.2164 104.238 12.929V20.8444H100.854V13.3418C100.879 12.9825 100.829 12.6219 100.707 12.2821C100.586 11.9424 100.395 11.6306 100.146 11.3659C99.8937 11.1334 99.5963 10.953 99.2717 10.8355C98.947 10.718 98.6017 10.6657 98.2561 10.6817C97.8696 10.6654 97.4838 10.7283 97.1233 10.8664C96.7628 11.0045 96.4355 11.2148 96.1621 11.4839C95.5976 12.1525 95.3238 13.0129 95.4001 13.8786V20.8444H92.0161V7.95083H95.4001V9.3959C96.2001 8.19266 97.4941 7.59104 99.2821 7.59104Z" fill="#3E445B"/>
<path d="M109.98 15.7659C110.436 17.382 111.666 18.1841 113.682 18.1841C114.24 18.2193 114.799 18.1207 115.31 17.8967C115.821 17.6727 116.269 17.3301 116.616 16.8983L119.346 18.4437C118.05 20.3036 116.144 21.2335 113.628 21.2335C112.67 21.2775 111.712 21.1285 110.815 20.7959C109.917 20.4632 109.098 19.9538 108.408 19.2989C107.759 18.662 107.249 17.9012 106.911 17.0632C106.572 16.2253 106.412 15.3281 106.44 14.427C106.414 13.5299 106.573 12.6371 106.907 11.8019C107.242 10.9668 107.744 10.2065 108.384 9.56679C109.032 8.92099 109.809 8.4145 110.666 8.07944C111.523 7.74438 112.442 7.58805 113.364 7.62037C114.253 7.59525 115.137 7.75694 115.958 8.09463C116.778 8.43232 117.516 8.93824 118.122 9.57859C119.368 10.88 120.042 12.611 120 14.3975C119.998 14.8566 119.954 15.3146 119.868 15.7659H109.98ZM109.932 13.1824H116.616C116.483 12.4037 116.054 11.7038 115.416 11.2242C114.819 10.7963 114.097 10.5706 113.358 10.5813C112.549 10.5536 111.754 10.7946 111.102 11.2655C110.494 11.749 110.08 12.4279 109.932 13.1824Z" fill="#3E445B"/>
<path d="M24.408 11.9971C24.4079 14.063 23.8651 16.0939 22.8322 17.893C21.7993 19.6922 20.3113 21.1986 18.5122 22.2665C16.7132 23.3344 14.6642 23.9275 12.5635 23.9883C10.4629 24.0492 8.38185 23.5758 6.52197 22.6139L9.96597 19.2224C11.1142 19.5663 12.3284 19.6408 13.5111 19.4399C14.6939 19.2391 15.8123 18.7686 16.7767 18.066C17.741 17.3635 18.5244 16.4485 19.064 15.3946C19.6037 14.3406 19.8845 13.177 19.884 11.9971H24.408Z" fill="#3E445B"/>
<path d="M7.69211 18.1136L4.47011 21.2809C3.84654 20.78 3.27568 20.2188 2.76611 19.6058L6.00011 16.4385C6.2367 16.7598 6.49958 17.0616 6.78611 17.3409C7.06684 17.6216 7.36979 17.88 7.69211 18.1136Z" fill="#3E445B"/>
<path d="M12.2044 0V4.44728C11.0046 4.4477 9.82158 4.72443 8.75021 5.2553C7.67884 5.78617 6.7489 6.55641 6.03492 7.50428C5.32095 8.45214 4.84281 9.55126 4.63884 10.7135C4.43487 11.8758 4.51073 13.0689 4.86035 14.1971L1.40435 17.5886C0.426295 15.7598 -0.0550056 13.7139 0.00702986 11.6487C0.0690653 9.58347 0.672336 7.56897 1.75846 5.80014C2.84459 4.0313 4.37679 2.56802 6.20679 1.55191C8.03678 0.535791 10.1026 0.00124479 12.2044 0V0Z" fill="#3E445B"/>
<path d="M19.89 4.44727V11.997H15.372C15.3737 12.6903 15.1368 13.3638 14.7 13.9081C14.4022 14.278 14.0228 14.5764 13.5903 14.7808C13.1579 14.9852 12.6838 15.0901 12.204 15.0877C11.7913 15.0891 11.3828 15.0068 11.004 14.8459C10.6218 14.6906 10.2746 14.4626 9.98221 14.1752C9.68981 13.8878 9.45797 13.5464 9.29995 13.1708C9.13807 12.7978 9.0544 12.3966 9.05396 11.9911C9.05554 11.1672 9.38919 10.3775 9.98183 9.7949C10.5745 9.2123 11.3778 8.88431 12.216 8.88275V4.44727H19.89Z" fill="#3E445B"/>
<path d="M24.4081 0V11.9971H19.8901V4.44728H12.2041V0H24.4081Z" fill="url(#paint0_linear)"/>
</g>
<defs>
<linearGradient id="paint0_linear" x1="16.0081" y1="8.23396" x2="24.3076" y2="-0.100652" gradientUnits="userSpaceOnUse">
<stop stop-color="#FFA300"/>
<stop offset="1" stop-color="#FFD1AA"/>
</linearGradient>
<clipPath id="clip0">
<path d="M0 0H120V24H0V0Z" fill="white"/>
</clipPath>
</defs>
</svg>
