<svg width="25" height="24" viewBox="0 0 25 24" fill="none" xmlns="http://www.w3.org/2000/svg">
    <path d="M24.4085 11.9971C24.4084 14.063 23.8656 16.0939 22.8327 17.893C21.7998 19.6922 20.3117 21.1986 18.5127 22.2665C16.7137 23.3344 14.6646 23.9275 12.564 23.9883C10.4634 24.0492 8.38234 23.5758 6.52246 22.6139L9.96646 19.2224C11.1147 19.5663 12.3288 19.6408 13.5116 19.4399C14.6944 19.2391 15.8128 18.7686 16.7771 18.066C17.7415 17.3635 18.5249 16.4485 19.0645 15.3946C19.6042 14.3406 19.885 13.177 19.8845 11.9971H24.4085Z" fill="#3E445B"/>
    <path d="M7.6926 18.1136L4.4706 21.2809C3.84703 20.78 3.27617 20.2188 2.7666 19.6058L6.0006 16.4385C6.23719 16.7598 6.50006 17.0616 6.7866 17.3409C7.06733 17.6216 7.37028 17.88 7.6926 18.1136Z" fill="#3E445B"/>
    <path d="M12.2046 0V4.44728C11.0048 4.4477 9.82183 4.72443 8.75046 5.2553C7.67909 5.78617 6.74914 6.55641 6.03517 7.50428C5.3212 8.45214 4.84306 9.55126 4.63908 10.7135C4.43511 11.8758 4.51098 13.0689 4.8606 14.1971L1.4046 17.5886C0.426539 15.7598 -0.0547614 13.7139 0.007274 11.6487C0.0693095 9.58347 0.67258 7.56897 1.75871 5.80014C2.84483 4.0313 4.37703 2.56802 6.20703 1.55191C8.03703 0.535791 10.1029 0.00124479 12.2046 0V0Z" fill="#3E445B"/>
    <path d="M19.8907 4.44727V11.997H15.3727C15.3744 12.6903 15.1376 13.3638 14.7007 13.9081C14.403 14.278 14.0235 14.5764 13.5911 14.7808C13.1586 14.9852 12.6845 15.0901 12.2047 15.0877C11.792 15.0891 11.3835 15.0068 11.0047 14.8459C10.6226 14.6906 10.2753 14.4626 9.98295 14.1752C9.69055 13.8878 9.4587 13.5464 9.30069 13.1708C9.1388 12.7978 9.05513 12.3966 9.05469 11.9911C9.05627 11.1672 9.38992 10.3775 9.98257 9.7949C10.5752 9.2123 11.3786 8.88431 12.2167 8.88275V4.44727H19.8907Z" fill="#3E445B"/>
    <path d="M24.4081 0V11.9971H19.8901V4.44728H12.2041V0H24.4081Z" fill="url(#paint0_linear)"/>
    <defs>
        <linearGradient id="paint0_linear" x1="16.0081" y1="8.23396" x2="24.3076" y2="-0.100652" gradientUnits="userSpaceOnUse">
            <stop stop-color="#FFA300"/>
            <stop offset="1" stop-color="#FFD1AA"/>
        </linearGradient>
    </defs>
</svg>
