<svg width="16" height="16" viewBox="0 0 16 16" fill="none" xmlns="http://www.w3.org/2000/svg">
    <circle opacity="0.5" cx="8" cy="8" r="7" fill="#3E445B"/>
    <path d="M8.2295 3.094C8.4855 3.094 8.6935 3.186 8.8535 3.37C9.0135 3.546 9.0935 3.77 9.0935 4.042C9.0935 4.33 9.0015 4.574 8.8175 4.774C8.6415 4.966 8.4215 5.062 8.1575 5.062C7.8935 5.062 7.6775 4.974 7.5095 4.798C7.3495 4.622 7.2695 4.402 7.2695 4.138C7.2695 3.858 7.3655 3.614 7.5575 3.406C7.7575 3.198 7.9815 3.094 8.2295 3.094ZM7.8095 6.118C8.2095 6.118 8.4935 6.238 8.6615 6.478C8.8375 6.718 8.9255 7.062 8.9255 7.51C8.9255 7.75 8.8935 8.114 8.8295 8.602C8.7655 9.082 8.7255 9.39 8.7095 9.526C8.6935 9.63 8.6615 9.862 8.6135 10.222C8.5655 10.574 8.5415 10.818 8.5415 10.954C8.5415 11.162 8.6015 11.266 8.7215 11.266C8.9375 11.266 9.1335 10.95 9.3095 10.318L9.9575 10.51C9.9095 10.774 9.8055 11.05 9.6455 11.338C9.4855 11.626 9.2775 11.874 9.0215 12.082C8.7655 12.282 8.4695 12.382 8.1335 12.382C7.7095 12.382 7.4095 12.27 7.2335 12.046C7.0655 11.822 6.9815 11.482 6.9815 11.026C6.9815 10.666 7.0535 10.03 7.1975 9.118C7.3175 8.334 7.3775 7.81 7.3775 7.546C7.3775 7.338 7.3135 7.234 7.1855 7.234C6.9775 7.234 6.7855 7.55 6.6095 8.182L5.9615 7.99C6.0095 7.734 6.1135 7.462 6.2735 7.174C6.4415 6.878 6.6535 6.63 6.9095 6.43C7.1735 6.222 7.4735 6.118 7.8095 6.118Z" fill="white"/>
</svg>
