<svg width="24" height="24" viewBox="0 0 24 24" fill="none" xmlns="http://www.w3.org/2000/svg">
<path d="M15.7929 15C19.1066 15 21.7929 12.3137 21.7929 9C21.7929 5.68629 19.1066 3 15.7929 3C12.4792 3 9.79289 5.68629 9.79289 9C9.79289 10.0414 10.0582 11.0209 10.525 11.8745L3.14645 19.253C2.95118 19.4483 2.95118 19.7649 3.14645 19.9602L4.06066 20.8744C4.15443 20.9681 4.28161 21.0208 4.41421 21.0208H6.82843C6.96104 21.0208 7.08821 20.9681 7.18198 20.8744L13.5071 14.5492C14.2116 14.8397 14.9835 15 15.7929 15Z" stroke="#3E445B" stroke-width="2"/>
<path d="M18.5 7.5C18.5 8.32843 17.8284 9 17 9C16.1716 9 15.5 8.32843 15.5 7.5C15.5 6.67157 16.1716 6 17 6C17.8284 6 18.5 6.67157 18.5 7.5Z" fill="#3E445B"/>
</svg>
