<svg width="559" height="135" viewBox="0 0 559 135" fill="none" xmlns="http://www.w3.org/2000/svg">
<g filter="url(#filter0_dddddd)">
<path d="M194.063 93.96C190.005 94.0423 185.972 93.3152 182.208 91.8225C178.444 90.3298 175.027 88.1024 172.163 85.2751C169.3 82.4477 167.049 79.079 165.547 75.3725C164.044 71.666 163.322 67.6985 163.423 63.7099C163.45 58.4216 164.886 53.2325 167.589 48.6601C170.293 44.0877 174.168 40.2918 178.829 37.651C183.49 35.0101 188.773 33.6166 194.153 33.6094C199.533 33.6022 204.82 34.9815 209.488 37.6098C214.004 40.1075 217.691 43.832 220.108 48.3369L207.232 55.7494C206.068 53.4082 204.219 51.4629 201.921 50.164C199.509 48.771 196.754 48.0576 193.956 48.102C191.891 48.0415 189.835 48.3996 187.917 49.1539C185.998 49.9083 184.258 51.0428 182.805 52.4869C181.336 53.9724 180.188 55.7349 179.431 57.6682C178.673 59.6015 178.322 61.6656 178.398 63.736C178.328 65.7862 178.682 67.8289 179.44 69.7403C180.198 71.6516 181.343 73.3916 182.805 74.8547C184.258 76.2987 185.998 77.4332 187.917 78.1876C189.835 78.942 191.891 79.3 193.956 79.2395C196.742 79.2744 199.489 78.5904 201.921 77.2559C204.229 75.993 206.083 74.0606 207.232 71.7227L220.241 79.0307C217.685 83.5092 213.953 87.2316 209.435 89.81C204.791 92.543 199.475 93.9779 194.063 93.96Z" fill="#F8A303"/>
</g>
<g filter="url(#filter1_dddddd)">
<path d="M261.938 33.5915C265.715 33.5515 269.457 34.3091 272.911 35.813C276.364 37.317 279.449 39.5322 281.957 42.3089C287.477 48.0946 290.461 55.7814 290.267 63.711C290.463 71.6331 287.477 79.3124 281.957 85.087C279.457 87.8843 276.377 90.1234 272.925 91.654C269.472 93.1846 265.726 93.9712 261.938 93.9611C258.356 94.1474 254.781 93.4889 251.511 92.0406C248.241 90.5922 245.371 88.3959 243.14 85.6351V92.3689H228.166V12.3721H243.14V41.9174C245.368 39.1533 248.238 36.9547 251.509 35.506C254.779 34.0573 258.356 33.4008 261.938 33.5915ZM247.627 75.2995C249.12 76.7864 250.91 77.953 252.884 78.7257C254.858 79.4983 256.974 79.8603 259.097 79.7887C261.232 79.8555 263.358 79.4916 265.345 78.7195C267.331 77.9474 269.135 76.7835 270.647 75.2995C272.177 73.7786 273.374 71.9658 274.164 69.9727C274.954 67.9796 275.32 65.8486 275.24 63.711C275.316 61.5902 274.953 59.4762 274.172 57.4976C273.392 55.519 272.21 53.7169 270.7 52.2009C269.189 50.7169 267.384 49.5529 265.398 48.7808C263.411 48.0087 261.285 47.6449 259.15 47.7116C257.018 47.6327 254.892 47.9911 252.908 48.764C250.924 49.5369 249.126 50.7074 247.627 52.2009C246.107 53.7261 244.92 55.5409 244.139 57.5338C243.358 59.5267 243 61.6555 243.087 63.7893C243.019 65.9093 243.386 68.0211 244.166 69.9986C244.946 71.9762 246.123 73.779 247.627 75.2995Z" fill="#F8A303"/>
</g>
<g filter="url(#filter2_dddddd)">
<path d="M313.376 51.3915C313.376 52.9053 314.385 54.0015 316.43 55.0977C318.84 56.189 321.346 57.0626 323.917 57.7077C326.907 58.4506 329.851 59.3657 332.732 60.4483C335.705 61.5679 338.299 63.4849 340.219 65.9815C342.323 68.7832 343.383 72.2117 343.219 75.6907C343.35 78.3128 342.808 80.9251 341.644 83.2875C340.479 85.65 338.729 87.6868 336.555 89.2106C331.687 92.4851 325.883 94.149 319.987 93.9608C308.075 93.9608 299.951 89.4368 295.614 80.3888L308.704 73.0807C310.403 78.0397 314.199 80.4932 320.094 80.4932C325.404 80.4932 328.059 78.8749 328.059 75.5863C328.059 74.0725 327.05 72.8458 324.979 71.8801C322.575 70.7949 320.079 69.9215 317.518 69.2701C314.525 68.507 311.581 67.5657 308.704 66.4513C305.776 65.3021 303.198 63.4327 301.216 61.0225C299.085 58.3882 297.974 55.0952 298.083 51.7308C297.974 49.1804 298.491 46.6415 299.591 44.3291C300.691 42.0167 302.341 39.9987 304.402 38.4458C308.925 35.1121 314.471 33.3991 320.12 33.5912C324.614 33.537 329.047 34.6153 332.997 36.7232C336.852 38.8026 340.035 41.9045 342.184 45.6756L329.413 52.5399C328.664 50.7456 327.369 49.223 325.706 48.181C324.042 47.1389 322.091 46.6284 320.12 46.7196C318.427 46.6552 316.753 47.0916 315.315 47.9724C314.715 48.325 314.22 48.8266 313.88 49.4268C313.539 50.0269 313.366 50.7045 313.376 51.3915Z" fill="#F8A303"/>
</g>
<g filter="url(#filter3_dddddd)">
<path fill-rule="evenodd" clip-rule="evenodd" d="M401.636 85.0858C397.348 89.3351 391.871 92.2335 385.901 93.4119C379.932 94.5902 373.741 93.9952 368.117 91.7026C362.493 89.41 357.691 85.5235 354.322 80.5383C350.952 75.5531 349.169 69.6949 349.199 63.7098C349.199 55.7078 352.432 48.0335 358.188 42.3752C363.944 36.7169 371.751 33.5381 379.891 33.5381C388.031 33.5381 395.838 36.7169 401.593 42.3752C407.349 48.0335 410.583 55.7078 410.583 63.7098C410.669 67.6864 409.918 71.6375 408.379 75.3158C406.839 78.994 404.543 82.3201 401.636 85.0858ZM373.767 78.374C371.839 77.6108 370.092 76.4661 368.633 75.0112H368.554C367.088 73.5138 365.945 71.7412 365.192 69.7994C364.439 67.8575 364.093 65.7864 364.173 63.7098C364.103 61.6278 364.462 59.5533 365.229 57.6112C365.995 55.6691 367.153 53.8994 368.633 52.4085C370.092 50.9535 371.839 49.8089 373.767 49.0456C375.694 48.2823 377.76 47.9167 379.838 47.9715C381.922 47.9204 383.996 48.2875 385.931 49.0503C387.867 49.8132 389.624 50.9558 391.095 52.4085C392.588 53.8923 393.759 55.6596 394.535 57.6026C395.311 59.5455 395.676 61.6235 395.609 63.7098C395.676 65.7961 395.311 67.8741 394.535 69.8171C393.759 71.7601 392.588 73.5273 391.095 75.0112C389.624 76.4638 387.867 77.6065 385.931 78.3693C383.996 79.1322 381.922 79.4993 379.838 79.4482C377.76 79.5029 375.694 79.1373 373.767 78.374Z" fill="#3E445B"/>
</g>
<g filter="url(#filter4_dddddd)">
<path d="M453.327 33.5907C456.246 33.5031 459.152 34.015 461.858 35.0935C464.564 36.1721 467.012 37.7937 469.045 39.8547C471.198 42.1994 472.856 44.941 473.922 47.9205C474.989 50.8999 475.443 54.0579 475.258 57.2113V92.2376H460.283V59.0383C460.394 57.448 460.173 55.8524 459.634 54.349C459.095 52.8456 458.25 51.4661 457.151 50.2947C456.033 49.2658 454.718 48.4677 453.281 47.9476C451.844 47.4276 450.316 47.1962 448.787 47.2671C447.077 47.1949 445.37 47.4731 443.774 48.0842C442.179 48.6953 440.731 49.6258 439.521 50.8167C437.023 53.7754 435.812 57.5827 436.149 61.4134V92.2376H421.175V35.1828H436.149V41.5773C439.689 36.2529 445.415 33.5907 453.327 33.5907Z" fill="#3E445B"/>
</g>
<g filter="url(#filter5_dddddd)">
<path d="M500.653 69.7648C502.671 76.9163 508.114 80.4659 517.035 80.4659C519.506 80.6215 521.978 80.1851 524.24 79.194C526.501 78.2029 528.484 76.6868 530.018 74.7761L542.098 81.6143C536.363 89.8445 527.929 93.9596 516.796 93.9596C512.555 94.1541 508.319 93.495 504.347 92.0229C500.375 90.5509 496.751 88.2967 493.697 85.3988C490.824 82.5805 488.57 79.2137 487.072 75.5058C485.574 71.7979 484.865 67.8277 484.988 63.8401C484.876 59.8706 485.579 55.9197 487.057 52.2241C488.536 48.5285 490.758 45.1645 493.591 42.3336C496.457 39.4759 499.895 37.2346 503.689 35.752C507.482 34.2693 511.548 33.5775 515.627 33.7206C519.562 33.6094 523.475 34.3249 527.106 35.8192C530.737 37.3135 534.001 39.5522 536.682 42.3858C542.194 48.1444 545.179 55.8044 544.992 63.7096C544.984 65.7412 544.789 67.7679 544.408 69.7648H500.653ZM500.441 58.333H530.018C529.429 54.8873 527.531 51.79 524.708 49.6677C522.066 47.7741 518.87 46.7756 515.601 46.8228C512.022 46.7002 508.505 47.7668 505.618 49.8504C502.93 51.9901 501.096 54.9942 500.441 58.333Z" fill="#3E445B"/>
</g>
<g filter="url(#filter6_dddddd)">
<path d="M67.9974 0V19.6795C62.6883 19.6813 57.4535 20.9059 52.7126 23.255C47.9718 25.6041 43.8567 29.0125 40.6973 33.2069C37.538 37.4012 35.4222 42.2649 34.5196 47.4079C33.617 52.551 33.9527 57.8305 35.4998 62.823L20.2068 77.8306C15.8788 69.7382 13.749 60.6847 14.0235 51.546C14.2981 42.4074 16.9676 33.4931 21.7737 25.6659C26.5799 17.8387 33.36 11.3637 41.4578 6.86728C49.5557 2.3709 58.6971 0.00550828 67.9974 0Z" fill="#3E445B"/>
<path d="M115.022 79.1777C119.593 71.2163 121.995 62.2295 121.995 53.0877H101.976C101.979 58.309 100.736 63.4581 98.348 68.1219C95.9601 72.7858 92.4935 76.8345 88.2262 79.9432C83.9589 83.052 79.0098 85.1342 73.776 86.0229C68.5422 86.9115 63.1693 86.5819 58.0885 85.0604L42.8486 100.068C51.0787 104.324 60.2874 106.419 69.5828 106.15C78.8782 105.881 87.9454 103.256 95.9062 98.5306C103.867 93.8053 110.452 87.1391 115.022 79.1777Z" fill="#3E445B"/>
<path d="M33.7783 94.1694L48.0359 80.1536C46.6096 79.12 45.269 77.9767 44.0268 76.7345C42.7588 75.4987 41.5956 74.1631 40.5487 72.7412L26.2381 86.757C28.4929 89.4696 31.019 91.9528 33.7783 94.1694Z" fill="#3E445B"/>
<path d="M101.999 53.0876V19.6794H68.0416V39.3067C64.3328 39.3136 60.778 40.765 58.1555 43.343C55.533 45.921 54.0566 49.4156 54.0495 53.0615C54.0515 54.8557 54.4218 56.6312 55.1381 58.2815C55.8373 59.9438 56.8633 61.4541 58.1571 62.7261C59.451 63.998 60.9874 65.0066 62.6784 65.6939C64.3547 66.4059 66.1624 66.7701 67.9885 66.764C70.1117 66.7748 72.2096 66.3104 74.1232 65.406C76.0368 64.5016 77.716 63.1809 79.0334 61.544C80.9666 59.1357 82.0146 56.1554 82.0071 53.0876H101.999Z" fill="#3E445B"/>
</g>
<path d="M122.003 0V53.0877H102.011V19.6795H68V0H122.003Z" fill="url(#paint0_linear)"/>
<path d="M194.064 93.46V93.4598L194.052 93.4601C190.061 93.5411 186.094 92.8258 182.392 91.3577C178.69 89.8896 175.33 87.6992 172.515 84.9193C169.699 82.1394 167.486 78.8278 166.01 75.1847C164.533 71.5416 163.824 67.6424 163.923 63.7226L163.923 63.7226L163.923 63.7124C163.95 58.5131 165.362 53.4109 168.02 48.9145C170.678 44.418 174.49 40.6841 179.075 38.086C183.661 35.4878 188.86 34.1165 194.154 34.1094C199.447 34.1023 204.65 35.4596 209.243 38.0455L209.246 38.0473C213.535 40.4199 217.062 43.9194 219.434 48.148L207.434 55.0561C206.219 52.8353 204.397 50.9895 202.17 49.7298C199.682 48.294 196.842 47.5582 193.96 47.6019C191.831 47.541 189.712 47.9108 187.734 48.6886C185.752 49.4678 183.955 50.6398 182.453 52.1322L182.45 52.1353C180.933 53.6688 179.748 55.4888 178.965 57.4858C178.185 59.4773 177.822 61.6035 177.898 63.7366C177.828 65.8498 178.194 67.9548 178.975 69.9245C179.758 71.8997 180.941 73.6972 182.452 75.2082L182.453 75.2093C183.955 76.7017 185.752 77.8738 187.734 78.6529C189.712 79.4308 191.831 79.8006 193.961 79.7396C196.828 79.7737 199.656 79.0688 202.162 77.6945C204.402 76.468 206.233 74.6328 207.438 72.4121L219.553 79.2178C217.051 83.4242 213.481 86.9253 209.187 89.3758L209.187 89.3757L209.182 89.3791C204.615 92.0663 199.388 93.4776 194.064 93.46Z" stroke="#F8A303"/>
<path d="M261.91 34.0908L261.925 34.0916L261.941 34.0914C265.648 34.0523 269.32 34.7958 272.709 36.2715C276.098 37.7472 279.124 39.9205 281.584 42.644L281.584 42.6442L281.593 42.654C287.022 48.3445 289.956 55.9031 289.765 63.6988L289.765 63.7111L289.765 63.7234C289.958 71.5113 287.023 79.0621 281.594 84.7415L281.588 84.7476L281.582 84.7538C279.13 87.4978 276.108 89.6949 272.72 91.1969C269.332 92.6989 265.655 93.471 261.937 93.4611L261.924 93.461L261.91 93.4617C258.407 93.644 254.91 92.9999 251.712 91.5834C248.514 90.1669 245.708 88.0194 243.527 85.3209L242.638 84.2208V85.6351V91.8689H228.664V12.8721H242.638V41.9174V43.3345L243.528 42.2312C245.705 39.5295 248.511 37.3799 251.709 35.9632C254.908 34.5464 258.406 33.9042 261.91 34.0908ZM247.27 75.6511L247.273 75.6537C248.814 77.1894 250.662 78.3937 252.7 79.1913C254.732 79.9868 256.91 80.3605 259.096 80.2889C261.292 80.3555 263.48 79.9801 265.524 79.1855C267.573 78.389 269.435 77.188 270.995 75.6562L270.997 75.6541C272.576 74.0851 273.811 72.2144 274.627 70.1569C275.44 68.1052 275.818 65.9116 275.738 63.7106C275.814 61.527 275.439 59.351 274.635 57.3141C273.83 55.2716 272.61 53.412 271.052 51.8479L271.052 51.8479L271.048 51.8441C269.488 50.3123 267.626 49.1113 265.577 48.3148C263.533 47.5204 261.346 47.145 259.15 47.2114C256.955 47.1325 254.767 47.5024 252.725 48.2981C250.677 49.0959 248.82 50.3042 247.273 51.8467L247.271 51.8478C245.703 53.4214 244.477 55.2942 243.671 57.3514C242.868 59.4029 242.498 61.5943 242.585 63.7915C242.517 65.9736 242.896 68.1469 243.699 70.1821C244.504 72.223 245.718 74.0829 247.27 75.6511Z" stroke="#F8A303"/>
<path d="M401.292 84.7235L401.292 84.7235L401.285 84.7307C397.067 88.9101 391.679 91.7619 385.806 92.9213C379.932 94.0808 373.84 93.4953 368.307 91.2396C362.774 88.9839 358.05 85.1607 354.737 80.2583C351.424 75.3561 349.671 69.5962 349.7 63.7123V63.7098C349.7 55.8432 352.878 48.297 358.54 42.7317C364.201 37.1662 371.882 34.0381 379.892 34.0381C387.902 34.0381 395.582 37.1662 401.244 42.7317C406.905 48.297 410.084 55.8432 410.084 63.7098H410.084L410.084 63.7206C410.168 67.6271 409.431 71.5088 407.918 75.1227C406.406 78.7366 404.15 82.0052 401.292 84.7235ZM391.447 75.367L391.448 75.3659C392.99 73.8342 394.199 72.0094 395 70.0025C395.8 68.0007 396.177 65.8598 396.11 63.7098C396.177 61.5599 395.8 59.419 395 57.4171C394.199 55.4103 392.99 53.5855 391.448 52.0538L391.447 52.0527C389.928 50.5523 388.113 49.3726 386.116 48.5851C384.122 47.7992 381.986 47.4204 379.839 47.4713C377.699 47.4166 375.57 47.7941 373.584 48.5807C371.593 49.3689 369.788 50.5512 368.281 52.0545L368.28 52.0562C366.752 53.595 365.556 55.422 364.765 57.4276C363.975 59.4277 363.604 61.5639 363.674 63.7085C363.593 65.8475 363.951 67.9803 364.727 69.9801C365.504 71.9855 366.685 73.8155 368.197 75.3609L368.345 75.5112H368.43C369.906 76.9452 371.658 78.0764 373.584 78.8389C375.57 79.6255 377.699 80.0031 379.839 79.9484C381.986 79.9993 384.122 79.6204 386.116 78.8345C388.113 78.0471 389.928 76.8674 391.447 75.367Z" stroke="#3E445B"/>
<path d="M453.328 34.0907H453.336L453.343 34.0904C456.194 34.0049 459.031 34.5048 461.674 35.558C464.314 36.6101 466.701 38.191 468.684 40.1994C470.789 42.4938 472.41 45.1755 473.452 48.089C474.496 51.0052 474.941 54.096 474.76 57.182L474.759 57.1966V57.2113V91.7376H460.784V59.0554C460.897 57.4018 460.665 55.7432 460.105 54.1804C459.544 52.6121 458.662 51.1735 457.516 49.9525L457.504 49.9393L457.49 49.927C456.324 48.8528 454.951 48.02 453.452 47.4775C451.961 46.9375 450.374 46.6959 448.787 46.7667C447.016 46.6949 445.249 46.9844 443.597 47.6173C441.938 48.2529 440.43 49.2209 439.171 50.4604L439.155 50.4766L439.14 50.4942C436.561 53.5482 435.307 57.4782 435.65 61.4352V91.7376H421.676V35.6828H435.65V41.5773V43.2324L436.567 41.8541C439.991 36.703 445.538 34.0907 453.328 34.0907Z" stroke="#3E445B"/>
<path d="M500.651 69.2648H499.99L500.17 69.9006C501.207 73.5751 503.136 76.3591 505.98 78.2158C508.811 80.0644 512.502 80.9638 517.017 80.9659C519.562 81.1237 522.108 80.673 524.438 79.6519C526.642 78.6862 528.59 77.2373 530.134 75.4177L541.368 81.7766C535.746 89.558 527.579 93.4596 516.794 93.4596H516.782L516.771 93.4602C512.597 93.6515 508.428 93.0029 504.519 91.5541C500.612 90.1059 497.046 87.8887 494.042 85.039C491.22 82.2691 489.005 78.9609 487.534 75.3185C486.062 71.6748 485.365 67.7737 485.486 63.8555L485.487 63.8407L485.486 63.8259C485.375 59.925 486.067 56.042 487.52 52.4098C488.973 48.7777 491.157 45.4708 493.942 42.6877C496.759 39.8788 500.139 37.6754 503.869 36.2176C507.599 34.7599 511.596 34.0796 515.608 34.2202L515.624 34.2208L515.64 34.2204C519.504 34.1112 523.348 34.814 526.914 36.2815C530.48 37.7491 533.685 39.9475 536.317 42.7294L536.319 42.7315C541.74 48.395 544.674 55.9267 544.49 63.6978L544.49 63.6978L544.49 63.7076C544.483 65.5708 544.315 67.4298 543.99 69.2648H500.651ZM499.948 58.2367L499.831 58.833H500.439H530.016H530.608L530.509 58.2488C529.898 54.6757 527.93 51.4661 525.006 49.268L525.006 49.2679L524.997 49.2614C522.271 47.3074 518.975 46.2766 515.604 46.3227C511.919 46.1991 508.297 47.2984 505.323 49.445L505.314 49.4519L505.305 49.4592C502.524 51.672 500.627 54.7802 499.948 58.2367Z" stroke="#3E445B"/>
<path d="M20.3361 77.0031C16.2587 69.1391 14.2581 60.39 14.5233 51.561C14.7952 42.5101 17.4391 33.6808 22.1998 25.9276C26.9606 18.1743 33.6772 11.7594 41.7005 7.30441C49.5787 2.93004 58.4543 0.591007 67.4974 0.502594V19.1832C62.2832 19.2593 57.1519 20.4973 52.4907 22.807C47.6805 25.1904 43.5045 28.649 40.2979 32.906C37.0913 37.1631 34.9434 42.1002 34.0271 47.3215C33.1284 52.4426 33.439 57.6968 34.933 62.6786L20.3361 77.0031ZM68.5416 39.3067V20.1794L101.499 52.5876H82.0071H81.5058L81.5071 53.0888C81.5143 56.0414 80.5059 58.9107 78.6439 61.2305C77.3742 62.8081 75.7554 64.0816 73.9096 64.9539C72.0638 65.8263 70.0398 66.2744 67.991 66.264L67.9868 66.264C66.2283 66.2699 64.4877 65.9191 62.8739 65.2337L62.8739 65.2337L62.8667 65.2307C61.2359 64.5678 59.7547 63.5954 58.5077 62.3695C57.2607 61.1437 56.2724 59.6885 55.599 58.0876L55.599 58.0876L55.5968 58.0824C54.9077 56.4949 54.5516 54.7873 54.5495 53.0619C54.5564 49.5513 55.9781 46.1846 58.506 43.6996C61.0343 41.2141 64.4633 39.8134 68.0425 39.8067L68.5416 39.8058V39.3067ZM43.6756 77.0905C44.797 78.2116 45.9973 79.2533 47.2674 80.2079L33.7462 93.4999C31.2664 91.4731 28.981 89.2271 26.9186 86.7903L40.491 73.4976C41.4623 74.7695 42.5266 75.9703 43.6756 77.0905Z" stroke="#3E445B"/>
<defs>
<filter id="filter0_dddddd" x="149.414" y="33.6094" width="84.8271" height="88.3569" filterUnits="userSpaceOnUse" color-interpolation-filters="sRGB">
<feFlood flood-opacity="0" result="BackgroundImageFix"/>
<feColorMatrix in="SourceAlpha" type="matrix" values="0 0 0 0 0 0 0 0 0 0 0 0 0 0 0 0 0 0 127 0"/>
<feOffset dy="0.387416"/>
<feGaussianBlur stdDeviation="0.193708"/>
<feColorMatrix type="matrix" values="0 0 0 0 0.972549 0 0 0 0 0.639216 0 0 0 0 0.0117647 0 0 0 0.0421718 0"/>
<feBlend mode="normal" in2="BackgroundImageFix" result="effect1_dropShadow"/>
<feColorMatrix in="SourceAlpha" type="matrix" values="0 0 0 0 0 0 0 0 0 0 0 0 0 0 0 0 0 0 127 0"/>
<feOffset dy="0.931014"/>
<feGaussianBlur stdDeviation="0.465507"/>
<feColorMatrix type="matrix" values="0 0 0 0 0.972549 0 0 0 0 0.639216 0 0 0 0 0.0117647 0 0 0 0.0605839 0"/>
<feBlend mode="normal" in2="effect1_dropShadow" result="effect2_dropShadow"/>
<feColorMatrix in="SourceAlpha" type="matrix" values="0 0 0 0 0 0 0 0 0 0 0 0 0 0 0 0 0 0 127 0"/>
<feOffset dy="1.75302"/>
<feGaussianBlur stdDeviation="0.876509"/>
<feColorMatrix type="matrix" values="0 0 0 0 0.972549 0 0 0 0 0.639216 0 0 0 0 0.0117647 0 0 0 0.075 0"/>
<feBlend mode="normal" in2="effect2_dropShadow" result="effect3_dropShadow"/>
<feColorMatrix in="SourceAlpha" type="matrix" values="0 0 0 0 0 0 0 0 0 0 0 0 0 0 0 0 0 0 127 0"/>
<feOffset dy="3.12708"/>
<feGaussianBlur stdDeviation="1.56354"/>
<feColorMatrix type="matrix" values="0 0 0 0 0.972549 0 0 0 0 0.639216 0 0 0 0 0.0117647 0 0 0 0.0894161 0"/>
<feBlend mode="normal" in2="effect3_dropShadow" result="effect4_dropShadow"/>
<feColorMatrix in="SourceAlpha" type="matrix" values="0 0 0 0 0 0 0 0 0 0 0 0 0 0 0 0 0 0 127 0"/>
<feOffset dy="5.84887"/>
<feGaussianBlur stdDeviation="2.92443"/>
<feColorMatrix type="matrix" values="0 0 0 0 0.972549 0 0 0 0 0.639216 0 0 0 0 0.0117647 0 0 0 0.107828 0"/>
<feBlend mode="normal" in2="effect4_dropShadow" result="effect5_dropShadow"/>
<feColorMatrix in="SourceAlpha" type="matrix" values="0 0 0 0 0 0 0 0 0 0 0 0 0 0 0 0 0 0 127 0"/>
<feOffset dy="14"/>
<feGaussianBlur stdDeviation="7"/>
<feColorMatrix type="matrix" values="0 0 0 0 0.972549 0 0 0 0 0.639216 0 0 0 0 0.0117647 0 0 0 0.15 0"/>
<feBlend mode="normal" in2="effect5_dropShadow" result="effect6_dropShadow"/>
<feBlend mode="normal" in="SourceGraphic" in2="effect6_dropShadow" result="shape"/>
</filter>
<filter id="filter1_dddddd" x="214.166" y="12.3721" width="90.1103" height="109.62" filterUnits="userSpaceOnUse" color-interpolation-filters="sRGB">
<feFlood flood-opacity="0" result="BackgroundImageFix"/>
<feColorMatrix in="SourceAlpha" type="matrix" values="0 0 0 0 0 0 0 0 0 0 0 0 0 0 0 0 0 0 127 0"/>
<feOffset dy="0.387416"/>
<feGaussianBlur stdDeviation="0.193708"/>
<feColorMatrix type="matrix" values="0 0 0 0 0.972549 0 0 0 0 0.639216 0 0 0 0 0.0117647 0 0 0 0.0421718 0"/>
<feBlend mode="normal" in2="BackgroundImageFix" result="effect1_dropShadow"/>
<feColorMatrix in="SourceAlpha" type="matrix" values="0 0 0 0 0 0 0 0 0 0 0 0 0 0 0 0 0 0 127 0"/>
<feOffset dy="0.931014"/>
<feGaussianBlur stdDeviation="0.465507"/>
<feColorMatrix type="matrix" values="0 0 0 0 0.972549 0 0 0 0 0.639216 0 0 0 0 0.0117647 0 0 0 0.0605839 0"/>
<feBlend mode="normal" in2="effect1_dropShadow" result="effect2_dropShadow"/>
<feColorMatrix in="SourceAlpha" type="matrix" values="0 0 0 0 0 0 0 0 0 0 0 0 0 0 0 0 0 0 127 0"/>
<feOffset dy="1.75302"/>
<feGaussianBlur stdDeviation="0.876509"/>
<feColorMatrix type="matrix" values="0 0 0 0 0.972549 0 0 0 0 0.639216 0 0 0 0 0.0117647 0 0 0 0.075 0"/>
<feBlend mode="normal" in2="effect2_dropShadow" result="effect3_dropShadow"/>
<feColorMatrix in="SourceAlpha" type="matrix" values="0 0 0 0 0 0 0 0 0 0 0 0 0 0 0 0 0 0 127 0"/>
<feOffset dy="3.12708"/>
<feGaussianBlur stdDeviation="1.56354"/>
<feColorMatrix type="matrix" values="0 0 0 0 0.972549 0 0 0 0 0.639216 0 0 0 0 0.0117647 0 0 0 0.0894161 0"/>
<feBlend mode="normal" in2="effect3_dropShadow" result="effect4_dropShadow"/>
<feColorMatrix in="SourceAlpha" type="matrix" values="0 0 0 0 0 0 0 0 0 0 0 0 0 0 0 0 0 0 127 0"/>
<feOffset dy="5.84887"/>
<feGaussianBlur stdDeviation="2.92443"/>
<feColorMatrix type="matrix" values="0 0 0 0 0.972549 0 0 0 0 0.639216 0 0 0 0 0.0117647 0 0 0 0.107828 0"/>
<feBlend mode="normal" in2="effect4_dropShadow" result="effect5_dropShadow"/>
<feColorMatrix in="SourceAlpha" type="matrix" values="0 0 0 0 0 0 0 0 0 0 0 0 0 0 0 0 0 0 127 0"/>
<feOffset dy="14"/>
<feGaussianBlur stdDeviation="7"/>
<feColorMatrix type="matrix" values="0 0 0 0 0.972549 0 0 0 0 0.639216 0 0 0 0 0.0117647 0 0 0 0.15 0"/>
<feBlend mode="normal" in2="effect5_dropShadow" result="effect6_dropShadow"/>
<feBlend mode="normal" in="SourceGraphic" in2="effect6_dropShadow" result="shape"/>
</filter>
<filter id="filter2_dddddd" x="281.614" y="33.5767" width="75.6239" height="88.3985" filterUnits="userSpaceOnUse" color-interpolation-filters="sRGB">
<feFlood flood-opacity="0" result="BackgroundImageFix"/>
<feColorMatrix in="SourceAlpha" type="matrix" values="0 0 0 0 0 0 0 0 0 0 0 0 0 0 0 0 0 0 127 0"/>
<feOffset dy="0.387416"/>
<feGaussianBlur stdDeviation="0.193708"/>
<feColorMatrix type="matrix" values="0 0 0 0 0.972549 0 0 0 0 0.639216 0 0 0 0 0.0117647 0 0 0 0.0421718 0"/>
<feBlend mode="normal" in2="BackgroundImageFix" result="effect1_dropShadow"/>
<feColorMatrix in="SourceAlpha" type="matrix" values="0 0 0 0 0 0 0 0 0 0 0 0 0 0 0 0 0 0 127 0"/>
<feOffset dy="0.931014"/>
<feGaussianBlur stdDeviation="0.465507"/>
<feColorMatrix type="matrix" values="0 0 0 0 0.972549 0 0 0 0 0.639216 0 0 0 0 0.0117647 0 0 0 0.0605839 0"/>
<feBlend mode="normal" in2="effect1_dropShadow" result="effect2_dropShadow"/>
<feColorMatrix in="SourceAlpha" type="matrix" values="0 0 0 0 0 0 0 0 0 0 0 0 0 0 0 0 0 0 127 0"/>
<feOffset dy="1.75302"/>
<feGaussianBlur stdDeviation="0.876509"/>
<feColorMatrix type="matrix" values="0 0 0 0 0.972549 0 0 0 0 0.639216 0 0 0 0 0.0117647 0 0 0 0.075 0"/>
<feBlend mode="normal" in2="effect2_dropShadow" result="effect3_dropShadow"/>
<feColorMatrix in="SourceAlpha" type="matrix" values="0 0 0 0 0 0 0 0 0 0 0 0 0 0 0 0 0 0 127 0"/>
<feOffset dy="3.12708"/>
<feGaussianBlur stdDeviation="1.56354"/>
<feColorMatrix type="matrix" values="0 0 0 0 0.972549 0 0 0 0 0.639216 0 0 0 0 0.0117647 0 0 0 0.0894161 0"/>
<feBlend mode="normal" in2="effect3_dropShadow" result="effect4_dropShadow"/>
<feColorMatrix in="SourceAlpha" type="matrix" values="0 0 0 0 0 0 0 0 0 0 0 0 0 0 0 0 0 0 127 0"/>
<feOffset dy="5.84887"/>
<feGaussianBlur stdDeviation="2.92443"/>
<feColorMatrix type="matrix" values="0 0 0 0 0.972549 0 0 0 0 0.639216 0 0 0 0 0.0117647 0 0 0 0.107828 0"/>
<feBlend mode="normal" in2="effect4_dropShadow" result="effect5_dropShadow"/>
<feColorMatrix in="SourceAlpha" type="matrix" values="0 0 0 0 0 0 0 0 0 0 0 0 0 0 0 0 0 0 127 0"/>
<feOffset dy="14"/>
<feGaussianBlur stdDeviation="7"/>
<feColorMatrix type="matrix" values="0 0 0 0 0.972549 0 0 0 0 0.639216 0 0 0 0 0.0117647 0 0 0 0.15 0"/>
<feBlend mode="normal" in2="effect5_dropShadow" result="effect6_dropShadow"/>
<feBlend mode="normal" in="SourceGraphic" in2="effect6_dropShadow" result="shape"/>
</filter>
<filter id="filter3_dddddd" x="335.198" y="33.5381" width="89.3913" height="88.4638" filterUnits="userSpaceOnUse" color-interpolation-filters="sRGB">
<feFlood flood-opacity="0" result="BackgroundImageFix"/>
<feColorMatrix in="SourceAlpha" type="matrix" values="0 0 0 0 0 0 0 0 0 0 0 0 0 0 0 0 0 0 127 0"/>
<feOffset dy="0.387416"/>
<feGaussianBlur stdDeviation="0.193708"/>
<feColorMatrix type="matrix" values="0 0 0 0 0.0941176 0 0 0 0 0.141176 0 0 0 0 0.25098 0 0 0 0.0421718 0"/>
<feBlend mode="normal" in2="BackgroundImageFix" result="effect1_dropShadow"/>
<feColorMatrix in="SourceAlpha" type="matrix" values="0 0 0 0 0 0 0 0 0 0 0 0 0 0 0 0 0 0 127 0"/>
<feOffset dy="0.931014"/>
<feGaussianBlur stdDeviation="0.465507"/>
<feColorMatrix type="matrix" values="0 0 0 0 0.0941176 0 0 0 0 0.141176 0 0 0 0 0.25098 0 0 0 0.0605839 0"/>
<feBlend mode="normal" in2="effect1_dropShadow" result="effect2_dropShadow"/>
<feColorMatrix in="SourceAlpha" type="matrix" values="0 0 0 0 0 0 0 0 0 0 0 0 0 0 0 0 0 0 127 0"/>
<feOffset dy="1.75302"/>
<feGaussianBlur stdDeviation="0.876509"/>
<feColorMatrix type="matrix" values="0 0 0 0 0.0941176 0 0 0 0 0.141176 0 0 0 0 0.25098 0 0 0 0.075 0"/>
<feBlend mode="normal" in2="effect2_dropShadow" result="effect3_dropShadow"/>
<feColorMatrix in="SourceAlpha" type="matrix" values="0 0 0 0 0 0 0 0 0 0 0 0 0 0 0 0 0 0 127 0"/>
<feOffset dy="3.12708"/>
<feGaussianBlur stdDeviation="1.56354"/>
<feColorMatrix type="matrix" values="0 0 0 0 0.0941176 0 0 0 0 0.141176 0 0 0 0 0.25098 0 0 0 0.0894161 0"/>
<feBlend mode="normal" in2="effect3_dropShadow" result="effect4_dropShadow"/>
<feColorMatrix in="SourceAlpha" type="matrix" values="0 0 0 0 0 0 0 0 0 0 0 0 0 0 0 0 0 0 127 0"/>
<feOffset dy="5.84887"/>
<feGaussianBlur stdDeviation="2.92443"/>
<feColorMatrix type="matrix" values="0 0 0 0 0.0941176 0 0 0 0 0.141176 0 0 0 0 0.25098 0 0 0 0.107828 0"/>
<feBlend mode="normal" in2="effect4_dropShadow" result="effect5_dropShadow"/>
<feColorMatrix in="SourceAlpha" type="matrix" values="0 0 0 0 0 0 0 0 0 0 0 0 0 0 0 0 0 0 127 0"/>
<feOffset dy="14"/>
<feGaussianBlur stdDeviation="7"/>
<feColorMatrix type="matrix" values="0 0 0 0 0.0941176 0 0 0 0 0.141176 0 0 0 0 0.25098 0 0 0 0.15 0"/>
<feBlend mode="normal" in2="effect5_dropShadow" result="effect6_dropShadow"/>
<feBlend mode="normal" in="SourceGraphic" in2="effect6_dropShadow" result="shape"/>
</filter>
<filter id="filter4_dddddd" x="407.175" y="33.5811" width="82.1232" height="86.6566" filterUnits="userSpaceOnUse" color-interpolation-filters="sRGB">
<feFlood flood-opacity="0" result="BackgroundImageFix"/>
<feColorMatrix in="SourceAlpha" type="matrix" values="0 0 0 0 0 0 0 0 0 0 0 0 0 0 0 0 0 0 127 0"/>
<feOffset dy="0.387416"/>
<feGaussianBlur stdDeviation="0.193708"/>
<feColorMatrix type="matrix" values="0 0 0 0 0.0941176 0 0 0 0 0.141176 0 0 0 0 0.25098 0 0 0 0.0421718 0"/>
<feBlend mode="normal" in2="BackgroundImageFix" result="effect1_dropShadow"/>
<feColorMatrix in="SourceAlpha" type="matrix" values="0 0 0 0 0 0 0 0 0 0 0 0 0 0 0 0 0 0 127 0"/>
<feOffset dy="0.931014"/>
<feGaussianBlur stdDeviation="0.465507"/>
<feColorMatrix type="matrix" values="0 0 0 0 0.0941176 0 0 0 0 0.141176 0 0 0 0 0.25098 0 0 0 0.0605839 0"/>
<feBlend mode="normal" in2="effect1_dropShadow" result="effect2_dropShadow"/>
<feColorMatrix in="SourceAlpha" type="matrix" values="0 0 0 0 0 0 0 0 0 0 0 0 0 0 0 0 0 0 127 0"/>
<feOffset dy="1.75302"/>
<feGaussianBlur stdDeviation="0.876509"/>
<feColorMatrix type="matrix" values="0 0 0 0 0.0941176 0 0 0 0 0.141176 0 0 0 0 0.25098 0 0 0 0.075 0"/>
<feBlend mode="normal" in2="effect2_dropShadow" result="effect3_dropShadow"/>
<feColorMatrix in="SourceAlpha" type="matrix" values="0 0 0 0 0 0 0 0 0 0 0 0 0 0 0 0 0 0 127 0"/>
<feOffset dy="3.12708"/>
<feGaussianBlur stdDeviation="1.56354"/>
<feColorMatrix type="matrix" values="0 0 0 0 0.0941176 0 0 0 0 0.141176 0 0 0 0 0.25098 0 0 0 0.0894161 0"/>
<feBlend mode="normal" in2="effect3_dropShadow" result="effect4_dropShadow"/>
<feColorMatrix in="SourceAlpha" type="matrix" values="0 0 0 0 0 0 0 0 0 0 0 0 0 0 0 0 0 0 127 0"/>
<feOffset dy="5.84887"/>
<feGaussianBlur stdDeviation="2.92443"/>
<feColorMatrix type="matrix" values="0 0 0 0 0.0941176 0 0 0 0 0.141176 0 0 0 0 0.25098 0 0 0 0.107828 0"/>
<feBlend mode="normal" in2="effect4_dropShadow" result="effect5_dropShadow"/>
<feColorMatrix in="SourceAlpha" type="matrix" values="0 0 0 0 0 0 0 0 0 0 0 0 0 0 0 0 0 0 127 0"/>
<feOffset dy="14"/>
<feGaussianBlur stdDeviation="7"/>
<feColorMatrix type="matrix" values="0 0 0 0 0.0941176 0 0 0 0 0.141176 0 0 0 0 0.25098 0 0 0 0.15 0"/>
<feBlend mode="normal" in2="effect5_dropShadow" result="effect6_dropShadow"/>
<feBlend mode="normal" in="SourceGraphic" in2="effect6_dropShadow" result="shape"/>
</filter>
<filter id="filter5_dddddd" x="470.975" y="33.7021" width="88.0258" height="88.2908" filterUnits="userSpaceOnUse" color-interpolation-filters="sRGB">
<feFlood flood-opacity="0" result="BackgroundImageFix"/>
<feColorMatrix in="SourceAlpha" type="matrix" values="0 0 0 0 0 0 0 0 0 0 0 0 0 0 0 0 0 0 127 0"/>
<feOffset dy="0.387416"/>
<feGaussianBlur stdDeviation="0.193708"/>
<feColorMatrix type="matrix" values="0 0 0 0 0.0941176 0 0 0 0 0.141176 0 0 0 0 0.25098 0 0 0 0.0421718 0"/>
<feBlend mode="normal" in2="BackgroundImageFix" result="effect1_dropShadow"/>
<feColorMatrix in="SourceAlpha" type="matrix" values="0 0 0 0 0 0 0 0 0 0 0 0 0 0 0 0 0 0 127 0"/>
<feOffset dy="0.931014"/>
<feGaussianBlur stdDeviation="0.465507"/>
<feColorMatrix type="matrix" values="0 0 0 0 0.0941176 0 0 0 0 0.141176 0 0 0 0 0.25098 0 0 0 0.0605839 0"/>
<feBlend mode="normal" in2="effect1_dropShadow" result="effect2_dropShadow"/>
<feColorMatrix in="SourceAlpha" type="matrix" values="0 0 0 0 0 0 0 0 0 0 0 0 0 0 0 0 0 0 127 0"/>
<feOffset dy="1.75302"/>
<feGaussianBlur stdDeviation="0.876509"/>
<feColorMatrix type="matrix" values="0 0 0 0 0.0941176 0 0 0 0 0.141176 0 0 0 0 0.25098 0 0 0 0.075 0"/>
<feBlend mode="normal" in2="effect2_dropShadow" result="effect3_dropShadow"/>
<feColorMatrix in="SourceAlpha" type="matrix" values="0 0 0 0 0 0 0 0 0 0 0 0 0 0 0 0 0 0 127 0"/>
<feOffset dy="3.12708"/>
<feGaussianBlur stdDeviation="1.56354"/>
<feColorMatrix type="matrix" values="0 0 0 0 0.0941176 0 0 0 0 0.141176 0 0 0 0 0.25098 0 0 0 0.0894161 0"/>
<feBlend mode="normal" in2="effect3_dropShadow" result="effect4_dropShadow"/>
<feColorMatrix in="SourceAlpha" type="matrix" values="0 0 0 0 0 0 0 0 0 0 0 0 0 0 0 0 0 0 127 0"/>
<feOffset dy="5.84887"/>
<feGaussianBlur stdDeviation="2.92443"/>
<feColorMatrix type="matrix" values="0 0 0 0 0.0941176 0 0 0 0 0.141176 0 0 0 0 0.25098 0 0 0 0.107828 0"/>
<feBlend mode="normal" in2="effect4_dropShadow" result="effect5_dropShadow"/>
<feColorMatrix in="SourceAlpha" type="matrix" values="0 0 0 0 0 0 0 0 0 0 0 0 0 0 0 0 0 0 127 0"/>
<feOffset dy="14"/>
<feGaussianBlur stdDeviation="7"/>
<feColorMatrix type="matrix" values="0 0 0 0 0.0941176 0 0 0 0 0.141176 0 0 0 0 0.25098 0 0 0 0.15 0"/>
<feBlend mode="normal" in2="effect5_dropShadow" result="effect6_dropShadow"/>
<feBlend mode="normal" in="SourceGraphic" in2="effect6_dropShadow" result="shape"/>
</filter>
<filter id="filter6_dddddd" x="0" y="0" width="135.995" height="134.173" filterUnits="userSpaceOnUse" color-interpolation-filters="sRGB">
<feFlood flood-opacity="0" result="BackgroundImageFix"/>
<feColorMatrix in="SourceAlpha" type="matrix" values="0 0 0 0 0 0 0 0 0 0 0 0 0 0 0 0 0 0 127 0"/>
<feOffset dy="0.387416"/>
<feGaussianBlur stdDeviation="0.193708"/>
<feColorMatrix type="matrix" values="0 0 0 0 0.0941176 0 0 0 0 0.141176 0 0 0 0 0.25098 0 0 0 0.0421718 0"/>
<feBlend mode="normal" in2="BackgroundImageFix" result="effect1_dropShadow"/>
<feColorMatrix in="SourceAlpha" type="matrix" values="0 0 0 0 0 0 0 0 0 0 0 0 0 0 0 0 0 0 127 0"/>
<feOffset dy="0.931014"/>
<feGaussianBlur stdDeviation="0.465507"/>
<feColorMatrix type="matrix" values="0 0 0 0 0.0941176 0 0 0 0 0.141176 0 0 0 0 0.25098 0 0 0 0.0605839 0"/>
<feBlend mode="normal" in2="effect1_dropShadow" result="effect2_dropShadow"/>
<feColorMatrix in="SourceAlpha" type="matrix" values="0 0 0 0 0 0 0 0 0 0 0 0 0 0 0 0 0 0 127 0"/>
<feOffset dy="1.75302"/>
<feGaussianBlur stdDeviation="0.876509"/>
<feColorMatrix type="matrix" values="0 0 0 0 0.0941176 0 0 0 0 0.141176 0 0 0 0 0.25098 0 0 0 0.075 0"/>
<feBlend mode="normal" in2="effect2_dropShadow" result="effect3_dropShadow"/>
<feColorMatrix in="SourceAlpha" type="matrix" values="0 0 0 0 0 0 0 0 0 0 0 0 0 0 0 0 0 0 127 0"/>
<feOffset dy="3.12708"/>
<feGaussianBlur stdDeviation="1.56354"/>
<feColorMatrix type="matrix" values="0 0 0 0 0.0941176 0 0 0 0 0.141176 0 0 0 0 0.25098 0 0 0 0.0894161 0"/>
<feBlend mode="normal" in2="effect3_dropShadow" result="effect4_dropShadow"/>
<feColorMatrix in="SourceAlpha" type="matrix" values="0 0 0 0 0 0 0 0 0 0 0 0 0 0 0 0 0 0 127 0"/>
<feOffset dy="5.84887"/>
<feGaussianBlur stdDeviation="2.92443"/>
<feColorMatrix type="matrix" values="0 0 0 0 0.0941176 0 0 0 0 0.141176 0 0 0 0 0.25098 0 0 0 0.107828 0"/>
<feBlend mode="normal" in2="effect4_dropShadow" result="effect5_dropShadow"/>
<feColorMatrix in="SourceAlpha" type="matrix" values="0 0 0 0 0 0 0 0 0 0 0 0 0 0 0 0 0 0 127 0"/>
<feOffset dy="14"/>
<feGaussianBlur stdDeviation="7"/>
<feColorMatrix type="matrix" values="0 0 0 0 0.0941176 0 0 0 0 0.141176 0 0 0 0 0.25098 0 0 0 0.15 0"/>
<feBlend mode="normal" in2="effect5_dropShadow" result="effect6_dropShadow"/>
<feBlend mode="normal" in="SourceGraphic" in2="effect6_dropShadow" result="shape"/>
</filter>
<linearGradient id="paint0_linear" x1="84.8329" y1="36.4358" x2="121.559" y2="-0.44539" gradientUnits="userSpaceOnUse">
<stop stop-color="#FFA300"/>
<stop offset="1" stop-color="#FFD1AA"/>
</linearGradient>
</defs>
</svg>
