<svg width="24" height="24" viewBox="0 0 24 24" fill="none" xmlns="http://www.w3.org/2000/svg">
    <path fill-rule="evenodd" clip-rule="evenodd" d="M21 12.5C21 12.7761 20.7761 13 20.5 13H3.5C3.22386 13 3 12.7761 3 12.5V11.5C3 11.2239 3.22386 11 3.5 11H20.5C20.7761 11 21 11.2239 21 11.5V12.5Z" fill="#3E445B"/>
    <path fill-rule="evenodd" clip-rule="evenodd" d="M16 17.5C16 17.7761 15.7761 18 15.5 18H3.5C3.22386 18 3 17.7761 3 17.5V16.5C3 16.2239 3.22386 16 3.5 16H15.5C15.7761 16 16 16.2239 16 16.5V17.5Z" fill="#3E445B"/>
    <path fill-rule="evenodd" clip-rule="evenodd" d="M21 7.5C21 7.77614 20.7761 8 20.5 8H3.5C3.22386 8 3 7.77614 3 7.5V6.5C3 6.22386 3.22386 6 3.5 6H20.5C20.7761 6 21 6.22386 21 6.5V7.5Z" fill="#3E445B"/>
</svg>
