<svg width="24" height="24" viewBox="0 0 24 24" fill="none" xmlns="http://www.w3.org/2000/svg">
<path fill-rule="evenodd" clip-rule="evenodd" d="M9.28 2H9.23939H9.23938C8.2103 1.99999 7.38024 1.99998 6.70699 2.05228C6.01409 2.10609 5.40417 2.21972 4.83564 2.49273C3.81108 2.98471 2.98471 3.81108 2.49273 4.83564C2.21972 5.40417 2.10609 6.01409 2.05228 6.70699C1.99998 7.38024 1.99999 8.2103 2 9.23938V9.23939V9.28V14.72V14.7606V14.7606C1.99999 15.7897 1.99998 16.6198 2.05228 17.293C2.10609 17.9859 2.21972 18.5958 2.49273 19.1644C2.98471 20.1889 3.81108 21.0153 4.83564 21.5073C5.40417 21.7803 6.01409 21.8939 6.70699 21.9477C7.38025 22 8.21032 22 9.23942 22H9.28H14.72H14.7606C15.7897 22 16.6198 22 17.293 21.9477C17.9859 21.8939 18.5958 21.7803 19.1644 21.5073C20.1889 21.0153 21.0153 20.1889 21.5073 19.1644C21.7803 18.5958 21.8939 17.9859 21.9477 17.293C22 16.6198 22 15.7897 22 14.7606V14.72V9.28V9.23942C22 8.21032 22 7.38025 21.9477 6.70699C21.8939 6.01409 21.7803 5.40417 21.5073 4.83564C21.0153 3.81108 20.1889 2.98471 19.1644 2.49273C18.5958 2.21972 17.9859 2.10609 17.293 2.05228C16.6198 1.99998 15.7897 1.99999 14.7606 2H14.7606H14.72H9.28ZM5.70138 4.29564C5.95373 4.17446 6.28601 4.091 6.86187 4.04627C7.44854 4.0007 8.20081 4 9.28 4H14.72C15.7992 4 16.5515 4.0007 17.1381 4.04627C17.714 4.091 18.0463 4.17446 18.2986 4.29564C18.9134 4.59083 19.4092 5.08665 19.7044 5.70138C19.8255 5.95373 19.909 6.28601 19.9537 6.86187C19.9993 7.44854 20 8.20081 20 9.28V14.72C20 15.7992 19.9993 16.5515 19.9537 17.1381C19.909 17.714 19.8255 18.0463 19.7044 18.2986C19.4092 18.9134 18.9134 19.4092 18.2986 19.7044C18.0463 19.8255 17.714 19.909 17.1381 19.9537C16.5515 19.9993 15.7992 20 14.72 20H9.28C8.20081 20 7.44854 19.9993 6.86187 19.9537C6.28601 19.909 5.95373 19.8255 5.70138 19.7044C5.08665 19.4092 4.59083 18.9134 4.29564 18.2986C4.17446 18.0463 4.091 17.714 4.04627 17.1381C4.0007 16.5515 4 15.7992 4 14.72V9.28C4 8.20081 4.0007 7.44854 4.04627 6.86187C4.091 6.28601 4.17446 5.95373 4.29564 5.70138C4.59083 5.08665 5.08665 4.59083 5.70138 4.29564ZM9 8C9 8.55228 8.55228 9 8 9C7.44772 9 7 8.55228 7 8C7 7.44772 7.44772 7 8 7C8.55228 7 9 7.44772 9 8ZM9 12C9 12.5523 8.55228 13 8 13C7.44772 13 7 12.5523 7 12C7 11.4477 7.44772 11 8 11C8.55228 11 9 11.4477 9 12ZM13 8C13 8.55228 12.5523 9 12 9C11.4477 9 11 8.55228 11 8C11 7.44772 11.4477 7 12 7C12.5523 7 13 7.44772 13 8ZM13 12C13 12.5523 12.5523 13 12 13C11.4477 13 11 12.5523 11 12C11 11.4477 11.4477 11 12 11C12.5523 11 13 11.4477 13 12ZM12 17C12.5523 17 13 16.5523 13 16C13 15.4477 12.5523 15 12 15C11.4477 15 11 15.4477 11 16C11 16.5523 11.4477 17 12 17ZM16 9C16.5523 9 17 8.55228 17 8C17 7.44772 16.5523 7 16 7C15.4477 7 15 7.44772 15 8C15 8.55228 15.4477 9 16 9ZM16 13C16.5523 13 17 12.5523 17 12C17 11.4477 16.5523 11 16 11C15.4477 11 15 11.4477 15 12C15 12.5523 15.4477 13 16 13Z" fill="#3E445B"/>
</svg>
