<svg width="24" height="24" viewBox="0 0 24 24" fill="none" xmlns="http://www.w3.org/2000/svg">
<path fill-rule="evenodd" clip-rule="evenodd" d="M8.21267 4.31796C8.47941 4.38943 8.6377 4.6636 8.56623 4.93033L8.18791 6.34224C11.7073 4.32715 16.1966 5.53664 18.226 9.05172C20.2599 12.5746 19.0529 17.0793 15.53 19.1133C12.0071 21.1472 7.5024 19.9402 5.46845 16.4173L5.21845 15.9843C5.08038 15.7451 5.16232 15.4393 5.40146 15.3013L6.26749 14.8013C6.50663 14.6632 6.81243 14.7451 6.9505 14.9843L7.2005 15.4173C8.68216 17.9836 11.9637 18.8629 14.53 17.3812C17.0963 15.8996 17.9756 12.618 16.494 10.0517C15.0168 7.49326 11.7508 6.61152 9.18802 8.07425L10.5998 8.45252C10.8665 8.52399 11.0248 8.79816 10.9533 9.06489L10.6945 10.0308C10.623 10.2976 10.3489 10.4558 10.0821 10.3844L5.37241 9.12241L6.63438 4.41269C6.70585 4.14596 6.98002 3.98767 7.24675 4.05914L8.21267 4.31796Z" fill="#3E445B"/>
</svg>
