<svg width="21" height="22" viewBox="0 0 21 22" fill="none" xmlns="http://www.w3.org/2000/svg">
    <path fill-rule="evenodd" clip-rule="evenodd" d="M16.5 2C15.3954 2 14.5 2.89543 14.5 4C14.5 4.34731 14.5885 4.67394 14.7443 4.95857C14.7544 4.97393 14.7641 4.98965 14.7735 5.00574C14.7829 5.02176 14.7917 5.03793 14.8001 5.05424C15.153 5.622 15.7823 6 16.5 6C17.6046 6 18.5 5.10457 18.5 4C18.5 2.89543 17.6046 2 16.5 2ZM13.6579 6.81465C14.3828 7.5466 15.3884 8 16.5 8C18.7091 8 20.5 6.20914 20.5 4C20.5 1.79086 18.7091 0 16.5 0C14.2909 0 12.5 1.79086 12.5 4C12.5 4.37692 12.5521 4.74166 12.6496 5.0874L7.34173 8.18494C6.61685 7.45323 5.61135 7 4.5 7C2.29086 7 0.5 8.79086 0.5 11C0.5 13.2091 2.29086 15 4.5 15C5.61171 15 6.6175 14.5465 7.34243 13.8144L12.6509 16.9077C12.5526 17.2549 12.5 17.6213 12.5 18C12.5 20.2091 14.2909 22 16.5 22C18.7091 22 20.5 20.2091 20.5 18C20.5 15.7909 18.7091 14 16.5 14C15.3903 14 14.3861 14.4519 13.6614 15.1818L8.35053 12.087C8.44791 11.7414 8.5 11.3768 8.5 11C8.5 10.6229 8.44781 10.258 8.35026 9.91204L13.6579 6.81465ZM6.19949 9.9451C6.20788 9.96147 6.21677 9.97771 6.22616 9.99379C6.23564 10.0101 6.24552 10.0259 6.25576 10.0415C6.41148 10.3261 6.5 10.6527 6.5 11C6.5 11.3462 6.41203 11.6719 6.25723 11.9559C6.24635 11.9722 6.23587 11.9891 6.22584 12.0063C6.21607 12.023 6.20685 12.04 6.19816 12.057C5.84498 12.6232 5.21649 13 4.5 13C3.39543 13 2.5 12.1046 2.5 11C2.5 9.89543 3.39543 9 4.5 9C5.21739 9 5.84656 9.3777 6.19949 9.9451ZM14.5 18C14.5 17.6743 14.5778 17.3668 14.7159 17.0951C14.7403 17.0629 14.763 17.029 14.7839 16.9932C14.8038 16.959 14.8215 16.9241 14.8369 16.8886C15.1958 16.3528 15.8067 16 16.5 16C17.6046 16 18.5 16.8954 18.5 18C18.5 19.1046 17.6046 20 16.5 20C15.3954 20 14.5 19.1046 14.5 18Z" fill="#3E445B"/>
</svg>
