<svg width="24" height="24" viewBox="0 0 24 24" fill="none" xmlns="http://www.w3.org/2000/svg">
<path fill-rule="evenodd" clip-rule="evenodd" d="M7.65336 11.5605C7.4581 11.3652 7.4581 11.0487 7.65336 10.8534L8.36046 10.1463C8.55573 9.95103 8.87231 9.95103 9.06757 10.1463L11.0069 12.0856L11.0069 3.49985C11.0069 3.22371 11.2308 2.99985 11.5069 2.99985L12.5069 2.99985C12.7831 2.99985 13.0069 3.22371 13.0069 3.49985L13.0069 12.0856L14.9463 10.1463C15.1415 9.95103 15.4581 9.95103 15.6534 10.1463L16.3605 10.8534C16.5557 11.0487 16.5557 11.3652 16.3605 11.5605L12.0069 15.9141L7.65336 11.5605Z" fill="#27AE60"/>
<path fill-rule="evenodd" clip-rule="evenodd" d="M3.5 12C3.77614 12 3.99838 12.2245 4.01538 12.5001C4.27352 16.6854 7.74968 20 12 20C16.2503 20 19.7265 16.6854 19.9846 12.5001C20.0016 12.2245 20.2239 12 20.5 12L21.5 12C21.7761 12 22.0013 12.2241 21.9877 12.4999C21.7272 17.7905 17.3552 22 12 22C6.64479 22 2.27276 17.7905 2.01228 12.4999C1.9987 12.2241 2.22386 12 2.5 12L3.5 12Z" fill="#3E445B"/>
</svg>
