<svg width="24" height="24" viewBox="0 0 24 24" fill="none" xmlns="http://www.w3.org/2000/svg">
<path opacity="0.5" fill-rule="evenodd" clip-rule="evenodd" d="M7.65336 7.35355C7.4581 7.54882 7.4581 7.8654 7.65336 8.06066L8.36046 8.76777C8.55573 8.96303 8.87231 8.96303 9.06757 8.76777L11.0069 6.82843L11.0069 15.4142C11.0069 15.6904 11.2308 15.9142 11.5069 15.9142L12.5069 15.9142C12.7831 15.9142 13.0069 15.6904 13.0069 15.4142L13.0069 6.82843L14.9463 8.76777C15.1415 8.96303 15.4581 8.96303 15.6534 8.76777L16.3605 8.06066C16.5557 7.8654 16.5557 7.54882 16.3605 7.35355L12.0069 3L7.65336 7.35355Z" fill="#3E445B"/>
<path fill-rule="evenodd" clip-rule="evenodd" d="M3.5 12C3.77614 12 3.99838 12.2245 4.01538 12.5001C4.27352 16.6854 7.74968 20 12 20C16.2503 20 19.7265 16.6854 19.9846 12.5001C20.0016 12.2245 20.2239 12 20.5 12L21.5 12C21.7761 12 22.0013 12.2241 21.9877 12.4999C21.7272 17.7905 17.3552 22 12 22C6.64479 22 2.27276 17.7905 2.01228 12.4999C1.9987 12.2241 2.22386 12 2.5 12L3.5 12Z" fill="#3E445B"/>
</svg>
