<svg width="24" height="24" viewBox="0 0 24 24" fill="none" xmlns="http://www.w3.org/2000/svg">
<path fill-rule="evenodd" clip-rule="evenodd" d="M18.0858 8.5L16.1465 6.56066C15.9512 6.3654 15.9512 6.04881 16.1465 5.85355L16.8536 5.14645C17.0488 4.95118 17.3654 4.95118 17.5607 5.14645L21.9142 9.5L17.5607 13.8536C17.3654 14.0488 17.0488 14.0488 16.8536 13.8536L16.1465 13.1464C15.9512 12.9512 15.9512 12.6346 16.1465 12.4393L18.0858 10.5H11.5C11.2239 10.5 11 10.2761 11 10V9C11 8.72386 11.2239 8.5 11.5 8.5H18.0858ZM6.43937 10.1464C6.63463 9.95118 6.95121 9.95118 7.14648 10.1464L7.85358 10.8536C8.04884 11.0488 8.04884 11.3654 7.85358 11.5607L5.91424 13.5H12.5C12.7762 13.5 13 13.7239 13 14V15C13 15.2761 12.7762 15.5 12.5 15.5H5.91424L7.85358 17.4393C8.04884 17.6346 8.04884 17.9512 7.85358 18.1464L7.14648 18.8536C6.95121 19.0488 6.63463 19.0488 6.43937 18.8536L2.08582 14.5L6.43937 10.1464Z" fill="#3E445B"/>
</svg>
