<svg width="24" height="24" viewBox="0 0 24 24" fill="none" xmlns="http://www.w3.org/2000/svg">
<path fill-rule="evenodd" clip-rule="evenodd" d="M6.43937 10.1464C6.63463 9.95118 6.95121 9.95118 7.14648 10.1464L7.85358 10.8536C8.04884 11.0488 8.04884 11.3654 7.85358 11.5607L5.91424 13.5H12.5C12.7762 13.5 13 13.7239 13 14V15C13 15.2761 12.7762 15.5 12.5 15.5H5.91424L7.85358 17.4393C8.04884 17.6346 8.04884 17.9512 7.85358 18.1464L7.14648 18.8536C6.95121 19.0488 6.63463 19.0488 6.43937 18.8536L2.08582 14.5L6.43937 10.1464Z" fill="#3E445B"/>
<path d="M18.0858 8.49995L16.1464 6.56061C15.9512 6.36535 15.9512 6.04877 16.1464 5.85351L16.8536 5.1464C17.0488 4.95114 17.3654 4.95114 17.5607 5.1464L21.9142 9.49995L17.5607 13.8535C17.3654 14.0488 17.0488 14.0488 16.8536 13.8535L16.1464 13.1464C15.9512 12.9511 15.9512 12.6346 16.1464 12.4393L18.0858 10.5H11.5C11.2239 10.5 11 10.2761 11 9.99995V8.99995C11 8.72381 11.2239 8.49995 11.5 8.49995H18.0858Z" fill="url(#paint0_linear)"/>
<defs>
<linearGradient id="paint0_linear" x1="17.7321" y1="3.61607" x2="12.1654" y2="10.5644" gradientUnits="userSpaceOnUse">
<stop stop-color="#FFCD9C"/>
<stop offset="1" stop-color="#F8A303"/>
</linearGradient>
</defs>
</svg>
