<svg width="16" height="16" viewBox="0 0 16 16" fill="none" xmlns="http://www.w3.org/2000/svg">
<path d="M15.2 2.7C14.6 3.05 13.95 3.3 13.3 3.45C12.75 2.85 11.95 2.5 11.1 2.5C9.45 2.5 8.05 3.85 8.05 5.55C8.05 5.8 8.1 6 8.15 6.25C5.65 6.15 3.4 4.9 1.9 3.1C1.65 3.45 1.5 3.95 1.5 4.5C1.5 5.55 2.05 6.5 2.85 7C2.35 7 1.9 6.85 1.5 6.6V6.65C1.5 8.1 2.55 9.35 3.95 9.6C3.7 9.65 3.45 9.7 3.15 9.7C2.95 9.7 2.75 9.7 2.6 9.65C3 10.85 4.1 11.75 5.45 11.75C4.4 12.55 3.1 13.05 1.7 13.05C1.45 13.05 1.2 13.05 1 13C2.2 13.95 3.8 14.45 5.5 14.45C11.05 14.45 14.1 9.85 14.1 5.85V5.45C14.7 5 15 4 15.2 2.7Z" fill="#2FA7E3"/>
</svg>
