<svg width="24" height="24" viewBox="0 0 24 24" fill="none" xmlns="http://www.w3.org/2000/svg">
<path fill-rule="evenodd" clip-rule="evenodd" d="M5 12C5 8.13401 8.13401 5 12 5C15.866 5 19 8.13401 19 12C19 15.866 15.866 19 12 19C8.13401 19 5 15.866 5 12ZM12 3C7.02944 3 3 7.02944 3 12C3 16.9706 7.02944 21 12 21C16.9706 21 21 16.9706 21 12C21 7.02944 16.9706 3 12 3ZM15.8536 11.0607C16.0489 10.8655 16.0489 10.5489 15.8536 10.3536L15.1465 9.64652C14.9513 9.45126 14.6347 9.45126 14.4394 9.64652L11.5001 12.5859L10.0607 11.1465C9.86547 10.9513 9.54889 10.9513 9.35363 11.1465L8.64652 11.8536C8.45126 12.0489 8.45126 12.3655 8.64652 12.5607L11.5001 15.4143L15.8536 11.0607Z" fill="#3E445B"/>
</svg>
