<svg width="24" height="24" viewBox="0 0 24 24" fill="none" xmlns="http://www.w3.org/2000/svg">
<path fill-rule="evenodd" clip-rule="evenodd" d="M16.5879 4.00033L12.6602 6.26801H10.5262C10.0146 6.26801 9.83318 5.59077 10.2762 5.335L15.5879 2.26828C16.5445 1.716 17.7677 2.04375 18.3199 3.00033L19.7735 5.51801C19.966 5.85134 19.7254 6.26801 19.3405 6.26801H17.8971L16.5879 4.00033ZM7 8L6.93417 8C6.04769 7.99995 5.28387 7.99991 4.67221 8.08214C4.0167 8.17027 3.38835 8.36902 2.87868 8.87868C2.36902 9.38834 2.17028 10.0167 2.08215 10.6722C1.99991 11.2839 1.99995 12.0477 2 12.9342L2 13V17L2 17.0658C1.99995 17.9523 1.99991 18.7161 2.08215 19.3278C2.17028 19.9833 2.36902 20.6117 2.87868 21.1213C3.38835 21.631 4.0167 21.8297 4.67221 21.9179C5.28387 22.0001 6.04769 22.0001 6.93417 22L7 22H17L17.0658 22C17.9523 22.0001 18.7161 22.0001 19.3278 21.9179C19.9833 21.8297 20.6117 21.631 21.1213 21.1213C21.631 20.6117 21.8297 19.9833 21.9179 19.3278C22.0001 18.7161 22.0001 17.9523 22 17.0658L22 17V13L22 12.9342C22.0001 12.0477 22.0001 11.2839 21.9179 10.6722C21.8297 10.0167 21.631 9.38834 21.1213 8.87868C20.6117 8.36902 19.9833 8.17027 19.3278 8.08214C18.7161 7.99991 17.9523 7.99995 17.0658 8L17 8H7ZM4.2929 10.2929C4.36902 10.2168 4.50497 10.1226 4.93871 10.0643C5.40122 10.0021 6.02893 10 7 10H17C17.9711 10 18.5988 10.0021 19.0613 10.0643C19.495 10.1226 19.631 10.2168 19.7071 10.2929C19.7832 10.369 19.8774 10.505 19.9357 10.9387C19.9979 11.4012 20 12.0289 20 13V17C20 17.9711 19.9979 18.5988 19.9357 19.0613C19.8774 19.495 19.7832 19.631 19.7071 19.7071C19.631 19.7832 19.495 19.8774 19.0613 19.9357C18.5988 19.9979 17.9711 20 17 20H7C6.02893 20 5.40121 19.9979 4.93871 19.9357C4.50497 19.8774 4.36902 19.7832 4.2929 19.7071C4.21677 19.631 4.12263 19.495 4.06431 19.0613C4.00213 18.5988 4 17.9711 4 17V13C4 12.0289 4.00213 11.4012 4.06431 10.9387C4.12263 10.505 4.21677 10.369 4.2929 10.2929ZM6.00001 6.26801L9.92774 4.00033L11.6598 3.00033C11.1075 2.04375 9.88433 1.716 8.92774 2.26828L3.61604 5.335C3.17302 5.59077 3.35448 6.26801 3.86604 6.26801H6.00001ZM17 16.5C17.8284 16.5 18.5 15.8284 18.5 15C18.5 14.1716 17.8284 13.5 17 13.5C16.1716 13.5 15.5 14.1716 15.5 15C15.5 15.8284 16.1716 16.5 17 16.5Z" fill="#3E445B"/>
</svg>
