<svg width="24" height="24" viewBox="0 0 24 24" fill="none" xmlns="http://www.w3.org/2000/svg">
<rect x="3" y="9" width="18" height="12" rx="2" stroke="#3E445B" stroke-width="2"/>
<path class="color-change-fill" d="M12.6602 6.26801L16.5879 4.00033L17.8972 6.26801H19.3406C19.7255 6.26801 19.966 5.85134 19.7736 5.51801L18.32 3.00033C17.7677 2.04375 16.5445 1.716 15.5879 2.26828L10.2762 5.335C9.83322 5.59077 10.0147 6.26801 10.5262 6.26801H12.6602Z" fill="url(#paint0_linear)"/>
<path class="color-change-fill" d="M6.00005 6.26801L11.6598 3.00033C11.1075 2.04375 9.88437 1.716 8.92778 2.26828L3.61608 5.335C3.17306 5.59077 3.35452 6.26801 3.86608 6.26801H6.00005Z" fill="url(#paint1_linear)"/>
<path d="M18.5 15C18.5 15.8284 17.8284 16.5 17 16.5C16.1716 16.5 15.5 15.8284 15.5 15C15.5 14.1716 16.1716 13.5 17 13.5C17.8284 13.5 18.5 14.1716 18.5 15Z" fill="#3E445B"/>
<defs>
<linearGradient id="paint0_linear" x1="15.5" y1="1" x2="12.3971" y2="6.49872" gradientUnits="userSpaceOnUse">
<stop stop-color="#FFCD9C"/>
<stop offset="1" stop-color="#F8A303"/>
</linearGradient>
<linearGradient id="paint1_linear" x1="15.5" y1="1" x2="12.3971" y2="6.49872" gradientUnits="userSpaceOnUse">
<stop stop-color="#FFCD9C"/>
<stop offset="1" stop-color="#F8A303"/>
</linearGradient>
</defs>
</svg>
