<svg width="16" height="16" viewBox="0 0 16 16" fill="none" xmlns="http://www.w3.org/2000/svg">
<path d="M11.052 9.4C11.108 8.938 11.15 8.476 11.15 8C11.15 7.524 11.108 7.062 11.052 6.6H13.418C13.53 7.048 13.6 7.517 13.6 8C13.6 8.483 13.53 8.952 13.418 9.4H11.052ZM9.813 13.292C10.233 12.515 10.555 11.675 10.779 10.8H12.844C12.1658 11.9678 11.0899 12.8524 9.813 13.292ZM9.638 9.4H6.362C6.292 8.938 6.25 8.476 6.25 8C6.25 7.524 6.292 7.055 6.362 6.6H9.638C9.701 7.055 9.75 7.524 9.75 8C9.75 8.476 9.701 8.938 9.638 9.4ZM8 13.572C7.419 12.732 6.95 11.801 6.663 10.8H9.337C9.05 11.801 8.581 12.732 8 13.572ZM5.2 5.2H3.156C3.8272 4.02905 4.90236 3.14304 6.18 2.708C5.76 3.485 5.445 4.325 5.2 5.2ZM3.156 10.8H5.2C5.445 11.675 5.76 12.515 6.18 13.292C4.90504 12.8522 3.83139 11.9674 3.156 10.8ZM2.582 9.4C2.47 8.952 2.4 8.483 2.4 8C2.4 7.517 2.47 7.048 2.582 6.6H4.948C4.892 7.062 4.85 7.524 4.85 8C4.85 8.476 4.892 8.938 4.948 9.4H2.582ZM8 2.421C8.581 3.261 9.05 4.199 9.337 5.2H6.663C6.95 4.199 7.419 3.261 8 2.421ZM12.844 5.2H10.779C10.5599 4.33302 10.2355 3.49613 9.813 2.708C11.101 3.149 12.172 4.038 12.844 5.2ZM8 1C4.129 1 1 4.15 1 8C1 9.85651 1.7375 11.637 3.05025 12.9497C3.70026 13.5998 4.47194 14.1154 5.32122 14.4672C6.17049 14.8189 7.08075 15 8 15C9.85651 15 11.637 14.2625 12.9497 12.9497C14.2625 11.637 15 9.85651 15 8C15 7.08075 14.8189 6.17049 14.4672 5.32122C14.1154 4.47194 13.5998 3.70026 12.9497 3.05025C12.2997 2.40024 11.5281 1.88463 10.6788 1.53284C9.8295 1.18106 8.91925 1 8 1Z" fill="#3E445B"/>
</svg>
